<?xml version="1.0" encoding="UTF-8" standalone="no"?>
<svg
   width="72.233368mm"
   height="89.489494mm"
   viewBox="0 0 72.233369 89.489493"
   version="1.1"
   id="svg1"
   xmlns="http://www.w3.org/2000/svg"
   xmlns:svg="http://www.w3.org/2000/svg">
  <defs
     id="defs1" />
  <g
     id="layer1"
     transform="translate(-124.97294,-92.583355)">
    <path
       style="fill:#ffffff;fill-rule:nonzero;stroke:none;stroke-width:0.352778"
       d="m 141.58983,105.84328 c 9.5758,12.87674 33.00201,19.04365 54.85906,15.63582 -1.73108,-0.54151 -14.71577,-4.38221 -14.71577,-9.90036 0,-1.73178 1.13594,-3.30094 2.75907,-3.67947 2.54353,-0.59513 5.35693,0.97367 6.54721,4.76074 3.02895,-5.4102 2.43381,-10.22456 -0.32527,-14.067015 -3.19193,-4.490149 -7.68208,-6.112573 -12.2816,-6.004623 h -15.03998 c 1.13595,1.785408 2.81341,3.787415 5.30225,5.57247 -1.73178,-0.757767 -2.9217,-1.677458 -4.3822,-2.651118 h -8.27723 c 1.94734,3.137599 6.54544,6.817066 11.68506,9.088956 -3.78636,-1.02729 -7.30285,-2.97497 -9.95468,-4.92301 h -10.65777 c 6.60047,7.46619 15.03997,11.19928 24.12965,12.66014 -7.24923,-0.54152 -15.20226,-3.35492 -19.20593,-6.49253 h -10.44187"
       id="path6" />
    <path
       style="fill:#cc0f12;fill-rule:nonzero;stroke:none;stroke-width:0.352778"
       d="m 197.20631,124.45365 -37.27592,16.82644 31.9204,-17.74578 c -28.02538,3.13867 -47.06903,-1.40652 -64.81479,-28.511849 -5.35587,18.503549 0.43321,42.091679 9.14328,49.611839 0.91934,-3.24555 1.2446,-6.43784 8.27793,-10.17128 -10.92906,9.90035 -5.41091,23.58883 4.70676,31.4332 -0.37853,-4.76074 0.75741,-8.98031 4.21957,-11.30723 -5.57283,12.55183 1.94804,22.66879 9.95469,27.48386 3.62479,-2.48815 6.98006,-5.46453 10.06334,-8.71079 l -8.1153,3.8421 10.11731,-6.00534 c 1.89301,-2.16464 3.73274,-4.43688 5.46382,-6.76275 l -16.66346,7.73571 18.88243,-10.87366 c 1.02729,-1.51519 2.00167,-3.08399 2.92065,-4.59952 l -22.72241,10.44222 24.72407,-14.06701 c 0.65017,-1.19028 1.2446,-2.38055 1.84044,-3.51649 l -27.43058,12.44388 29.16096,-16.23025 c 0.43286,-1.02905 0.86572,-1.94839 1.2446,-2.92205 L 161.66148,156.91591 194.177,139.0082 c 0.32456,-0.81174 0.59443,-1.67745 0.81174,-2.54352 l -34.03106,15.25728 35.05835,-18.9364 c 0.16299,-0.75742 0.32421,-1.56881 0.48719,-2.27189 l -36.08564,16.01435 36.62645,-19.9637 c 0.10795,-0.70308 0.16228,-1.40688 0.16228,-2.11067"
       id="path7" />
  </g>
</svg>
