<?xml version="1.0" encoding="UTF-8" standalone="no"?>
<svg
   width="210.00014mm"
   height="156.00009mm"
   viewBox="0 0 210.00014 156.00009"
   version="1.1"
   id="svg1"
   xmlns="http://www.w3.org/2000/svg">
  <defs id="defs1" />
  <g
     id="layer1"
     transform="translate(-58.472917,-74.083336)">
    <path
       style="fill:#ffffff;fill-rule:nonzero;stroke:none;stroke-width:0.352778"
       d="m 101.63175,186.26349 -1.5875,14.24132 -1.587148,-14.24132 h -4.339519 l 2.744611,20.38667 h 6.364466 l 2.74426,-20.38667 z m 9.34826,0 h -4.45594 v 20.38667 h 4.45594 z m 11.03771,13.95028 c 0,-0.87398 -0.28293,-1.70822 -0.84843,-2.50473 -0.27376,-0.38805 -0.87842,-1.06757 -1.81504,-2.0388 -0.72214,-0.73766 -1.49296,-1.52393 -2.31211,-2.35896 -0.58561,-0.62512 -0.87806,-1.27 -0.87806,-1.93498 v -1.90536 c 0,-0.21449 0.0603,-0.37112 0.18203,-0.46884 0.12136,-0.0974 0.30339,-0.14675 0.54645,-0.14675 0.2025,0 0.36936,0.0543 0.50095,0.16157 0.13158,0.10759 0.19755,0.25894 0.19755,0.45402 v 3.78213 h 4.04813 v -3.52389 c 0,-1.06751 -0.33973,-1.91206 -1.01918,-2.53365 -0.79657,-0.71826 -2.00025,-1.07774 -3.61138,-1.07774 -1.86408,0 -3.22333,0.35948 -4.07741,1.07774 -0.73801,0.62159 -1.10666,1.58256 -1.10666,2.88325 v 2.30046 c 0,0.75742 0.34113,1.57269 1.02411,2.44652 0.15628,0.19431 0.87842,0.97112 2.16641,2.33013 0.78034,0.83855 1.51201,1.60898 2.19534,2.31069 0.25364,0.33116 0.38064,0.77996 0.38064,1.34511 v 2.42782 c 0,0.23428 -0.0705,0.40982 -0.21131,0.52669 -0.14041,0.11713 -0.35172,0.1753 -0.63288,0.1753 -0.2413,0 -0.44733,-0.0631 -0.61807,-0.19018 -0.1711,-0.12665 -0.25612,-0.29764 -0.25612,-0.51248 v -4.71428 h -4.04812 v 4.65984 c 0,0.95151 0.32032,1.74735 0.96096,2.38799 0.85408,0.87383 2.20345,1.31053 4.04813,1.31053 1.94134,0 3.32034,-0.36865 4.13561,-1.10659 0.69921,-0.64064 1.04846,-1.63089 1.04846,-2.97074 z m 5.4169,-13.95028 h -4.45593 v 20.38667 h 4.45593 z m 11.06699,3.78601 c 0,-1.26189 -0.41769,-2.23238 -1.25236,-2.91254 -0.83502,-0.67909 -2.10714,-1.01917 -3.81529,-1.01917 -1.86408,0 -3.21345,0.35948 -4.04812,1.07774 -0.73802,0.62159 -1.10667,1.58256 -1.10667,2.88325 v 13.13455 c 0,1.20414 0.47555,2.11667 1.42699,2.73763 0.95109,0.62163 2.1844,0.93196 3.69887,0.93196 1.51412,0 2.74214,-0.32025 3.68406,-0.96093 0.94156,-0.64064 1.41252,-1.55331 1.41252,-2.73759 z m -4.5212,13.8479 c -0.121,0.10721 -0.31291,0.16055 -0.57503,0.16055 -0.26211,0 -0.45931,-0.0533 -0.59019,-0.16055 -0.13124,-0.10763 -0.19685,-0.25851 -0.19685,-0.45325 v -13.94569 c 0,-0.21449 0.0656,-0.37042 0.19685,-0.46778 0.13088,-0.0974 0.32808,-0.14605 0.59019,-0.14605 0.26212,0 0.45403,0.0487 0.57503,0.14605 0.12101,0.0974 0.18168,0.25329 0.18168,0.46778 v 13.94569 c 0,0.19474 -0.0607,0.34562 -0.18168,0.45325 z m 16.81092,-17.63391 h -3.7278 v 9.30134 l -2.56293,-9.30134 h -5.09658 v 20.38667 h 3.7278 v -10.87409 l 3.05788,10.87409 h 4.60163 z m 15.52258,0 h -9.46538 v 2.62114 h 2.50472 v 17.76553 h 4.45593 v -17.76553 h 2.50473 z m 9.60296,0 h -5.69277 l -3.35704,20.38667 h 4.39773 l 0.77611,-5.4755 h 2.05916 l 0.77576,5.4755 h 4.39773 z m -3.48827,12.11541 0.62724,-6.11607 0.65652,6.11607 z m 17.35843,0.11645 h -4.04812 v 5.06483 c 0,0.15656 -0.0512,0.27838 -0.1524,0.36615 -0.10195,0.0878 -0.26458,0.13162 -0.48789,0.13162 -0.18309,0 -0.34043,-0.0438 -0.47237,-0.13162 -0.13194,-0.0871 -0.19791,-0.2092 -0.19791,-0.3652 v -14.20872 c 0,-0.17533 0.0554,-0.30163 0.16722,-0.37994 0.11218,-0.078 0.2794,-0.11712 0.50306,-0.11712 0.22331,0 0.38594,0.0392 0.48789,0.11747 0.10125,0.0783 0.1524,0.20532 0.1524,0.381 v 4.07388 h 4.04812 v -3.69852 c 0,-1.06751 -0.34007,-1.91206 -1.01952,-2.53365 -0.79622,-0.71826 -1.9999,-1.07774 -3.61104,-1.07774 -1.86408,0 -3.22333,0.35948 -4.0774,1.07774 -0.73801,0.62159 -1.10667,1.58256 -1.10667,2.88325 v 13.13455 c 0,1.1847 0.50448,2.10689 1.51448,2.76684 0.93168,0.60219 2.15512,0.90275 3.66959,0.90275 1.41676,0 2.57246,-0.35912 3.46569,-1.07734 0.77611,-0.62125 1.16487,-1.32998 1.16487,-2.1262 z m 10.30958,-12.23186 h -9.46503 v 2.62114 h 2.50437 v 17.76553 h 4.45594 v -17.76553 h 2.50472 z m 5.30049,0 h -4.45594 v 20.38667 h 4.45594 z m 10.65882,12.23186 h -4.04812 v 5.06483 c 0,0.15656 -0.0508,0.27838 -0.1524,0.36615 -0.10195,0.0878 -0.26458,0.13162 -0.48789,0.13162 -0.18309,0 -0.34043,-0.0438 -0.47237,-0.13162 -0.13194,-0.0871 -0.19791,-0.2092 -0.19791,-0.3652 v -14.20872 c 0,-0.17533 0.0554,-0.30163 0.16757,-0.37994 0.11183,-0.078 0.2794,-0.11712 0.50271,-0.11712 0.22331,0 0.38594,0.0392 0.48789,0.11747 0.1016,0.0783 0.1524,0.20532 0.1524,0.381 v 4.07388 h 4.04812 v -3.69852 c 0,-1.06751 -0.33972,-1.91206 -1.01917,-2.53365 -0.79657,-0.71826 -1.9999,-1.07774 -3.61139,-1.07774 -1.86407,0 -3.22333,0.35948 -4.0774,1.07774 -0.73801,0.62159 -1.10667,1.58256 -1.10667,2.88325 v 13.13455 c 0,1.1847 0.50448,2.10689 1.51448,2.76684 0.93204,0.60219 2.15512,0.90275 3.66959,0.90275 1.41711,0 2.57246,-0.35912 3.46569,-1.07734 0.77647,-0.62125 1.16487,-1.32998 1.16487,-2.1262 z m 9.71939,-12.23186 h -5.69278 l -3.35668,20.38667 h 4.39737 l 0.77647,-5.4755 h 2.05916 l 0.77576,5.4755 h 4.39773 z m -3.48792,12.11541 0.62724,-6.11607 0.65652,6.11607 z m 15.98965,5.67905 h -3.96099 v -17.79446 h -4.48486 v 20.38667 h 8.44585 z"
       id="path3" />
    <path
       style="fill:#ffffff;fill-rule:nonzero;stroke:none;stroke-width:0.352778"
       d="m 141.58983,105.84328 c 9.5758,12.87674 33.00201,19.04365 54.85906,15.63582 -1.73108,-0.54151 -14.71577,-4.38221 -14.71577,-9.90036 0,-1.73178 1.13594,-3.30094 2.75907,-3.67947 2.54353,-0.59513 5.35693,0.97367 6.54721,4.76074 3.02895,-5.4102 2.43381,-10.22456 -0.32527,-14.067015 -3.19193,-4.490149 -7.68208,-6.112573 -12.2816,-6.004623 h -15.03998 c 1.13595,1.785408 2.81341,3.787415 5.30225,5.57247 -1.73178,-0.757767 -2.9217,-1.677458 -4.3822,-2.651118 h -8.27723 c 1.94734,3.137599 6.54544,6.817066 11.68506,9.088956 -3.78636,-1.02729 -7.30285,-2.97497 -9.95468,-4.92301 h -10.65777 c 6.60047,7.46619 15.03997,11.19928 24.12965,12.66014 -7.24923,-0.54152 -15.20226,-3.35492 -19.20593,-6.49253 h -10.44187"
       id="path6" />
    <path
       style="fill:#cc0f12;fill-rule:nonzero;stroke:none;stroke-width:0.352778"
       d="m 197.20631,124.45365 -37.27592,16.82644 31.9204,-17.74578 c -28.02538,3.13867 -47.06903,-1.40652 -64.81479,-28.511849 -5.35587,18.503549 0.43321,42.091679 9.14328,49.611839 0.91934,-3.24555 1.2446,-6.43784 8.27793,-10.17128 -10.92906,9.90035 -5.41091,23.58883 4.70676,31.4332 -0.37853,-4.76074 0.75741,-8.98031 4.21957,-11.30723 -5.57283,12.55183 1.94804,22.66879 9.95469,27.48386 3.62479,-2.48815 6.98006,-5.46453 10.06334,-8.71079 l -8.1153,3.8421 10.11731,-6.00534 c 1.89301,-2.16464 3.73274,-4.43688 5.46382,-6.76275 l -16.66346,7.73571 18.88243,-10.87366 c 1.02729,-1.51519 2.00167,-3.08399 2.92065,-4.59952 l -22.72241,10.44222 24.72407,-14.06701 c 0.65017,-1.19028 1.2446,-2.38055 1.84044,-3.51649 l -27.43058,12.44388 29.16096,-16.23025 c 0.43286,-1.02905 0.86572,-1.94839 1.2446,-2.92205 L 161.66148,156.91591 194.177,139.0082 c 0.32456,-0.81174 0.59443,-1.67745 0.81174,-2.54352 l -34.03106,15.25728 35.05835,-18.9364 c 0.16299,-0.75742 0.32421,-1.56881 0.48719,-2.27189 l -36.08564,16.01435 36.62645,-19.9637 c 0.10795,-0.70308 0.16228,-1.40688 0.16228,-2.11067"
       id="path7" />
  </g>
</svg>
