<?xml version="1.0" encoding="UTF-8" standalone="no"?>
<!-- Created with Inkscape (http://www.inkscape.org/) -->

<svg
   width="210.00015mm"
   height="156.00009mm"
   viewBox="0 0 210.00015 156.00009"
   version="1.1"
   id="svg1"
   xml:space="preserve"
   xmlns="http://www.w3.org/2000/svg"
   xmlns:svg="http://www.w3.org/2000/svg"><defs
     id="defs1" /><g
     id="layer1"
     transform="translate(-40.52076,-103.88956)"><g
       id="Background"
       transform="matrix(0.35277778,0,0,0.35277778,40.52076,-37.110424)"><g
         id="g1"
         transform="translate(-7.7224903,422.78808)"><path
           transform="translate(101.04,301.137)"
           style="fill:#171615;fill-rule:nonzero;stroke:none"
           d="M 21.3,0.413 16.8,40.783 12.301,0.413 H 0 L 7.78,58.202 H 25.821 L 33.6,0.413 Z m 26.499,0 H 35.168 v 57.789 h 12.631 z m 31.288,39.544 c 0,-2.477 -0.802,-4.842 -2.405,-7.1 -0.776,-1.1 -2.49,-3.026 -5.145,-5.779 -2.047,-2.091 -4.232,-4.32 -6.554,-6.687 -1.66,-1.772 -2.489,-3.6 -2.489,-5.485 v -5.4 c 0,-0.609 0.171,-1.053 0.516,-1.33 0.344,-0.276 0.86,-0.416 1.549,-0.416 0.574,0 1.047,0.154 1.42,0.458 0.373,0.305 0.56,0.734 0.56,1.288 v 10.72 h 11.475 v -9.989 c 0,-3.026 -0.963,-5.42 -2.889,-7.182 C 72.867,1.019 69.455,0 64.888,0 59.604,0 55.751,1.019 53.33,3.055 51.238,4.817 50.193,7.541 50.193,11.228 v 6.522 c 0,2.146 0.967,4.458 2.903,6.934 0.443,0.551 2.49,2.753 6.141,6.605 2.212,2.377 4.286,4.561 6.223,6.55 0.719,0.939 1.079,2.211 1.079,3.813 v 6.882 c 0,0.664 -0.2,1.162 -0.599,1.493 -0.398,0.332 -0.997,0.497 -1.794,0.497 -0.684,0 -1.268,-0.179 -1.752,-0.539 -0.485,-0.359 -0.726,-0.844 -0.726,-1.453 V 35.169 H 50.193 v 13.209 c 0,2.697 0.908,4.953 2.724,6.769 2.421,2.477 6.246,3.715 11.475,3.715 5.503,0 9.412,-1.045 11.723,-3.137 1.982,-1.816 2.972,-4.623 2.972,-8.421 z M 94.442,0.413 H 81.811 v 57.789 h 12.631 z m 31.371,10.732 c 0,-3.577 -1.184,-6.328 -3.55,-8.256 C 119.896,0.964 116.29,0 111.448,0 106.164,0 102.339,1.019 99.973,3.055 97.881,4.817 96.836,7.541 96.836,11.228 V 48.46 c 0,3.413 1.348,6 4.045,7.76 2.696,1.762 6.192,2.642 10.485,2.642 4.292,0 7.773,-0.908 10.443,-2.724 2.669,-1.816 4.004,-4.403 4.004,-7.76 z m -12.816,39.254 c -0.343,0.304 -0.887,0.455 -1.63,0.455 -0.743,0 -1.302,-0.151 -1.673,-0.455 -0.372,-0.304 -0.558,-0.733 -0.558,-1.285 V 9.583 c 0,-0.608 0.186,-1.05 0.558,-1.326 0.371,-0.276 0.93,-0.414 1.673,-0.414 0.743,0 1.287,0.138 1.63,0.414 0.343,0.276 0.515,0.718 0.515,1.326 v 39.531 c 0,0.552 -0.172,0.981 -0.515,1.285 z M 160.65,0.413 H 150.083 V 26.779 L 142.818,0.413 h -14.447 v 57.789 h 10.567 V 27.378 l 8.668,30.824 h 13.044 z m 44.001,0 H 177.82 v 7.43 h 7.1 v 50.359 h 12.631 V 7.843 h 7.1 z m 27.221,0 h -16.137 l -9.516,57.789 h 12.466 l 2.2,-15.521 h 5.837 l 2.199,15.521 h 12.466 z m -9.888,34.343 1.778,-17.337 1.861,17.337 z m 49.205,0.33 h -11.475 v 14.357 c 0,0.444 -0.145,0.79 -0.432,1.039 -0.289,0.248 -0.75,0.372 -1.383,0.372 -0.519,0 -0.965,-0.124 -1.339,-0.372 -0.374,-0.248 -0.561,-0.594 -0.561,-1.036 V 9.169 c 0,-0.497 0.157,-0.855 0.474,-1.077 0.318,-0.221 0.792,-0.332 1.426,-0.332 0.633,0 1.094,0.111 1.383,0.333 0.287,0.222 0.432,0.582 0.432,1.08 v 11.548 h 11.475 V 10.237 c 0,-3.026 -0.964,-5.42 -2.89,-7.182 C 266.042,1.019 262.63,0 258.063,0 c -5.284,0 -9.137,1.019 -11.558,3.055 -2.092,1.762 -3.137,4.486 -3.137,8.173 V 48.46 c 0,3.358 1.43,5.973 4.293,7.843 2.641,1.707 6.109,2.559 10.402,2.559 4.016,0 7.292,-1.018 9.824,-3.054 2.2,-1.761 3.302,-3.77 3.302,-6.027 z M 300.413,0.413 h -26.83 v 7.43 h 7.099 v 50.359 h 12.631 V 7.843 h 7.1 z m 15.025,0 h -12.631 v 57.789 h 12.631 z m 30.214,34.673 h -11.475 v 14.357 c 0,0.444 -0.144,0.79 -0.432,1.039 -0.289,0.248 -0.75,0.372 -1.383,0.372 -0.519,0 -0.965,-0.124 -1.339,-0.372 -0.374,-0.248 -0.561,-0.594 -0.561,-1.036 V 9.169 c 0,-0.497 0.157,-0.855 0.475,-1.077 0.317,-0.221 0.792,-0.332 1.425,-0.332 0.633,0 1.094,0.111 1.383,0.333 0.288,0.222 0.432,0.582 0.432,1.08 v 11.548 h 11.475 V 10.237 c 0,-3.026 -0.963,-5.42 -2.889,-7.182 C 340.505,1.019 337.094,0 332.526,0 c -5.284,0 -9.137,1.019 -11.558,3.055 -2.092,1.762 -3.137,4.486 -3.137,8.173 V 48.46 c 0,3.358 1.43,5.973 4.293,7.843 2.642,1.707 6.109,2.559 10.402,2.559 4.017,0 7.292,-1.018 9.824,-3.054 2.201,-1.761 3.302,-3.77 3.302,-6.027 z M 373.203,0.413 h -16.137 l -9.515,57.789 h 12.465 l 2.201,-15.521 h 5.837 l 2.199,15.521 h 12.466 z m -9.887,34.343 1.778,-17.337 1.861,17.337 z m 45.325,16.098 H 397.413 V 0.413 H 384.7 v 57.789 h 23.941 z"
           id="path2" /><path
           transform="translate(235.607,35.9998)"
           style="fill:#171615;fill-rule:nonzero;stroke:none"
           d="m 0,37.5862 c 27.144,36.502 93.549,53.983 155.506,44.323 -4.907,-1.535 -41.714,-12.422 -41.714,-28.064 0,-4.91 3.22,-9.357 7.821,-10.43 7.21,-1.687 15.185,2.76 18.559,13.495 8.586,-15.336 6.899,-28.983 -0.922,-39.875 C 130.202,4.30722 117.474,-0.291779 104.436,0.0142211 H 61.803 C 65.023,5.07522 69.778,10.7492 76.833,15.8102 71.924,13.6612 68.551,11.0552 64.411,8.29522 H 40.948 C 46.468,17.1892 59.502,27.6192 74.071,34.0592 63.338,31.1472 53.37,25.6262 45.853,20.1042 H 15.642 c 18.71,21.165 42.633,31.746 68.399,35.887 -20.549,-1.535 -43.093,-9.51 -54.442,-18.405 H 0"
           id="path4" /><path
           transform="translate(188.504,42.914)"
           style="fill:#cc0f12;fill-rule:nonzero;stroke:none"
           d="M 204.756,83.428 99.092,131.124 189.575,80.821 C 110.133,89.718 56.151,76.834 5.84804,0 c -15.182,52.451 1.228,119.315 25.91796,140.632 2.606,-9.2 3.528,-18.249 23.465,-28.832 -30.98,28.064 -15.338,66.866 13.342,89.102 -1.073,-13.495 2.147,-25.456 11.961,-32.052 -15.797,35.58 5.522,64.258 28.218,77.907 10.275,-7.053 19.786,-15.49 28.526,-24.692 l -23.004,10.891 28.679,-17.023 c 5.366,-6.136 10.581,-12.576 15.488,-19.17 l -47.235,21.928 53.525,-30.823 c 2.912,-4.295 5.674,-8.742 8.279,-13.037 l -64.41,29.599 70.084,-39.875 c 1.843,-3.374 3.528,-6.748 5.217,-9.968 l -77.756,35.274 82.661,-46.007 c 1.227,-2.916 2.454,-5.523 3.528,-8.283 l -88.335,39.875 92.17,-50.762 c 0.92,-2.301 1.685,-4.755 2.301,-7.21 l -96.466,43.249 99.378,-53.678 c 0.462,-2.147 0.919,-4.447 1.381,-6.44 L 100.473,146 204.296,89.41 c 0.306,-1.993 0.46,-3.988 0.46,-5.982"
           id="path5" /></g></g></g></svg>
