<svg width="144.16mm" height="114.3mm" version="1.1" viewBox="0 0 144.16 114.3" xmlns="http://www.w3.org/2000/svg">
 <g transform="translate(-94.118 -92.583)">
  <path d="m101.63 186.26-1.5875 14.241-1.5871-14.241h-4.3395l2.7446 20.387h6.3645l2.7443-20.387zm9.3483 0h-4.4559v20.387h4.4559zm11.038 13.95c0-0.87398-0.28293-1.7082-0.84843-2.5047-0.27376-0.38805-0.87842-1.0676-1.815-2.0388-0.72214-0.73766-1.493-1.5239-2.3121-2.359-0.58561-0.62512-0.87806-1.27-0.87806-1.935v-1.9054c0-0.21449 0.0603-0.37112 0.18203-0.46884 0.12136-0.0974 0.30339-0.14675 0.54645-0.14675 0.2025 0 0.36936 0.0543 0.50095 0.16157 0.13158 0.10759 0.19755 0.25894 0.19755 0.45402v3.7821h4.0481v-3.5239c0-1.0675-0.33973-1.9121-1.0192-2.5336-0.79657-0.71826-2.0002-1.0777-3.6114-1.0777-1.8641 0-3.2233 0.35948-4.0774 1.0777-0.73801 0.62159-1.1067 1.5826-1.1067 2.8832v2.3005c0 0.75742 0.34113 1.5727 1.0241 2.4465 0.15628 0.19431 0.87842 0.97112 2.1664 2.3301 0.78034 0.83855 1.512 1.609 2.1953 2.3107 0.25364 0.33116 0.38064 0.77996 0.38064 1.3451v2.4278c0 0.23428-0.0705 0.40982-0.21131 0.52669-0.14041 0.11713-0.35172 0.1753-0.63288 0.1753-0.2413 0-0.44733-0.0631-0.61807-0.19018-0.1711-0.12665-0.25612-0.29764-0.25612-0.51248v-4.7143h-4.0481v4.6598c0 0.95151 0.32032 1.7474 0.96096 2.388 0.85408 0.87383 2.2034 1.3105 4.0481 1.3105 1.9413 0 3.3203-0.36865 4.1356-1.1066 0.69921-0.64064 1.0485-1.6309 1.0485-2.9707zm5.4169-13.95h-4.4559v20.387h4.4559zm11.067 3.786c0-1.2619-0.41769-2.2324-1.2524-2.9125-0.83502-0.67909-2.1071-1.0192-3.8153-1.0192-1.8641 0-3.2134 0.35948-4.0481 1.0777-0.73802 0.62159-1.1067 1.5826-1.1067 2.8832v13.135c0 1.2041 0.47555 2.1167 1.427 2.7376 0.95109 0.62163 2.1844 0.93196 3.6989 0.93196 1.5141 0 2.7421-0.32025 3.6841-0.96093 0.94156-0.64064 1.4125-1.5533 1.4125-2.7376zm-4.5212 13.848c-0.121 0.10721-0.31291 0.16055-0.57503 0.16055-0.26211 0-0.45931-0.0533-0.59019-0.16055-0.13124-0.10763-0.19685-0.25851-0.19685-0.45325v-13.946c0-0.21449 0.0656-0.37042 0.19685-0.46778 0.13088-0.0974 0.32808-0.14605 0.59019-0.14605 0.26212 0 0.45403 0.0487 0.57503 0.14605 0.12101 0.0974 0.18168 0.25329 0.18168 0.46778v13.946c0 0.19474-0.0607 0.34562-0.18168 0.45325zm16.811-17.634h-3.7278v9.3013l-2.5629-9.3013h-5.0966v20.387h3.7278v-10.874l3.0579 10.874h4.6016zm15.523 0h-9.4654v2.6211h2.5047v17.766h4.4559v-17.766h2.5047zm9.603 0h-5.6928l-3.357 20.387h4.3977l0.77611-5.4755h2.0592l0.77576 5.4755h4.3977zm-3.4883 12.115 0.62724-6.1161 0.65652 6.1161zm17.358 0.11645h-4.0481v5.0648c0 0.15656-0.0512 0.27838-0.1524 0.36615-0.10195 0.0878-0.26458 0.13162-0.48789 0.13162-0.18309 0-0.34043-0.0438-0.47237-0.13162-0.13194-0.0871-0.19791-0.2092-0.19791-0.3652v-14.209c0-0.17533 0.0554-0.30163 0.16722-0.37994 0.11218-0.078 0.2794-0.11712 0.50306-0.11712 0.22331 0 0.38594 0.0392 0.48789 0.11747 0.10125 0.0783 0.1524 0.20532 0.1524 0.381v4.0739h4.0481v-3.6985c0-1.0675-0.34007-1.9121-1.0195-2.5336-0.79622-0.71826-1.9999-1.0777-3.611-1.0777-1.8641 0-3.2233 0.35948-4.0774 1.0777-0.73801 0.62159-1.1067 1.5826-1.1067 2.8832v13.135c0 1.1847 0.50448 2.1069 1.5145 2.7668 0.93168 0.60219 2.1551 0.90275 3.6696 0.90275 1.4168 0 2.5725-0.35912 3.4657-1.0773 0.77611-0.62125 1.1649-1.33 1.1649-2.1262zm10.31-12.232h-9.465v2.6211h2.5044v17.766h4.4559v-17.766h2.5047zm5.3005 0h-4.4559v20.387h4.4559zm10.659 12.232h-4.0481v5.0648c0 0.15656-0.0508 0.27838-0.1524 0.36615-0.10195 0.0878-0.26458 0.13162-0.48789 0.13162-0.18309 0-0.34043-0.0438-0.47237-0.13162-0.13194-0.0871-0.19791-0.2092-0.19791-0.3652v-14.209c0-0.17533 0.0554-0.30163 0.16757-0.37994 0.11183-0.078 0.2794-0.11712 0.50271-0.11712s0.38594 0.0392 0.48789 0.11747c0.1016 0.0783 0.1524 0.20532 0.1524 0.381v4.0739h4.0481v-3.6985c0-1.0675-0.33972-1.9121-1.0192-2.5336-0.79657-0.71826-1.9999-1.0777-3.6114-1.0777-1.8641 0-3.2233 0.35948-4.0774 1.0777-0.73801 0.62159-1.1067 1.5826-1.1067 2.8832v13.135c0 1.1847 0.50448 2.1069 1.5145 2.7668 0.93204 0.60219 2.1551 0.90275 3.6696 0.90275 1.4171 0 2.5725-0.35912 3.4657-1.0773 0.77647-0.62125 1.1649-1.33 1.1649-2.1262zm9.7194-12.232h-5.6928l-3.3567 20.387h4.3974l0.77647-5.4755h2.0592l0.77576 5.4755h4.3977zm-3.4879 12.115 0.62724-6.1161 0.65652 6.1161zm15.99 5.679h-3.961v-17.794h-4.4849v20.387h8.4458z" fill="#09090b"/>
  <path d="m141.59 105.84c9.5758 12.877 33.002 19.044 54.859 15.636-1.7311-0.54151-14.716-4.3822-14.716-9.9004 0-1.7318 1.1359-3.3009 2.7591-3.6795 2.5435-0.59513 5.3569 0.97367 6.5472 4.7607 3.029-5.4102 2.4338-10.225-0.32527-14.067-3.1919-4.4901-7.6821-6.1126-12.282-6.0046h-15.04c1.136 1.7854 2.8134 3.7874 5.3022 5.5725-1.7318-0.75777-2.9217-1.6775-4.3822-2.6511h-8.2772c1.9473 3.1376 6.5454 6.8171 11.685 9.089-3.7864-1.0273-7.3028-2.975-9.9547-4.923h-10.658c6.6005 7.4662 15.04 11.199 24.13 12.66-7.2492-0.54152-15.202-3.3549-19.206-6.4925h-10.442" fill="#09090b"/>
  <path d="m197.21 124.45-37.276 16.826 31.92-17.746c-28.025 3.1387-47.069-1.4065-64.815-28.512-5.3559 18.504 0.43321 42.092 9.1433 49.612 0.91934-3.2456 1.2446-6.4378 8.2779-10.171-10.929 9.9004-5.4109 23.589 4.7068 31.433-0.37853-4.7607 0.75741-8.9803 4.2196-11.307-5.5728 12.552 1.948 22.669 9.9547 27.484 3.6248-2.4882 6.9801-5.4645 10.063-8.7108l-8.1153 3.8421 10.117-6.0053c1.893-2.1646 3.7327-4.4369 5.4638-6.7628l-16.663 7.7357 18.882-10.874c1.0273-1.5152 2.0017-3.084 2.9206-4.5995l-22.722 10.442 24.724-14.067c0.65017-1.1903 1.2446-2.3806 1.8404-3.5165l-27.431 12.444 29.161-16.23c0.43286-1.029 0.86572-1.9484 1.2446-2.922l-31.163 14.067 32.516-17.908c0.32456-0.81174 0.59443-1.6774 0.81174-2.5435l-34.031 15.257 35.058-18.936c0.16299-0.75742 0.32421-1.5688 0.48719-2.2719l-36.086 16.014 36.626-19.964c0.10795-0.70308 0.16228-1.4069 0.16228-2.1107" fill="#cc0f12"/>
 </g>
</svg>
