<?xml version="1.0" encoding="UTF-8" standalone="no"?>
<!-- Created with Inkscape (http://www.inkscape.org/) -->

<svg
   version="1.1"
   id="svg1"
   width="825.44067"
   height="599.48761"
   viewBox="0 0 825.44067 599.48761"
   xmlns="http://www.w3.org/2000/svg"
   xmlns:svg="http://www.w3.org/2000/svg">
  <defs
     id="defs1" />
  <g
     id="g1"
     style="display:inline"
     transform="translate(-535.97735,762.17973)">
    <path
       style="fill:#264395;fill-opacity:1;stroke:none"
       d="m 897.57736,-346.81978 c 0,-5.55 -0.3293,-10.4665 1.7931,-15.68 13.6525,-33.5365 36.2339,-62.4071 64.4469,-84.9762 22.3509,-17.8799 47.95644,-31.442 72.64004,-45.7679 13.1483,-7.6311 26.2117,-15.409 39.36,-23.04 18.7378,-10.8752 38.3944,-23.2007 49.5963,-42.3759 4.4517,-7.6202 7.1288,-15.9187 8.3237,-24.64 1.9147,-13.9752 0.6301,-28.7201 -6.1788,-41.28 -16.7456,-30.8894 -61.2157,-37.3918 -91.4212,-24.5032 -24.4914,10.4504 -35.939,34.0955 -38.34574,59.3832 -0.7477,7.8559 -0.054,16.1064 -0.054,24 0,1.8984 0.8968,7.037 -0.5131,8.447 -1.1973,1.1972 -4.9486,0.513 -6.5269,0.513 h -18.56 -74.56 v 197.76"
       id="path29" />
    <path
       style="display:inline;fill:#de5542;fill-opacity:1"
       d="m 1255.0176,-358.98028 h 0.4804 v 108.16016 h 105.92 v -108.16016 z"
       id="path26" />
    <path
       style="display:inline;fill:#f3b946;fill-opacity:1"
       d="m 897.25781,-762.01953 v 107.35937 h 0.73047 l 0.21289,-0.85156 c 0.26186,-1.04333 5.28206,-11.13479 7.38477,-14.8457 5.58046,-9.84854 12.96684,-20.34752 20.36133,-28.94141 4.23826,-4.92571 13.10358,-13.79299 18.02929,-18.03125 29.50961,-25.39112 66.42084,-40.49073 107.54294,-43.99414 4.0057,-0.34127 -14.3956,-0.44287 -113.91598,-0.63086 -11.91227,-0.0225 -25.54438,-0.0439 -40.34571,-0.0645 z"
       id="path23" />
    <path
       style="display:inline;fill:#040607;fill-opacity:1;stroke:none"
       d="m 1324.1373,-216.57974 v 52.48 h 27.2 c 1.8116,0 8.095,0.97188 9.2711,-0.51312 1.4386,-1.81633 0.3289,-8.06422 0.3289,-10.36688 h -24.64 v -10.88 h 22.08 v -10.24 h -22.08 v -9.92 h 23.36 v -10.56 h -35.52"
       id="path21" />
    <path
       style="display:inline;fill:#040607;fill-opacity:1;stroke:none"
       d="m 1264.9373,-216.57974 4.3445,12.16 9.4316,24.96 4.0084,10.56 1.763,4.28688 2.8525,0.51312 9.4741,-0.19312 1.944,-3.64688 3.7239,-9.6 14.938,-39.04 h -14.08 l -6.6133,20.48 -5.5467,16.64 c -2.881,-8.85421 -6.0439,-17.64492 -8.7296,-26.56 -0.7318,-2.42906 -1.5912,-8.68328 -3.655,-10.23109 -0.9223,-0.69172 -2.8489,-0.32891 -3.9354,-0.32891 h -9.92"
       id="path20" />
    <path
       id="path28"
       style="display:inline;fill:#040607;fill-opacity:1;stroke:none"
       d="m 1238.4707,-217.1582 c -6.267,-0.12521 -12.7259,0.57812 -18.0137,0.57812 v 52.48047 h 12.4805 v -20.80078 l 4.0547,0.33008 3.3867,5.42969 5.2598,9.60156 2.8633,4.92578 4.2753,0.51367 h 10.5606 c -2.577,-8.14015 -9.7888,-14.99757 -13.4414,-22.7207 11.6228,-2.07187 14.6147,-19.21922 5.4414,-25.94336 -4.5238,-3.31598 -10.6001,-4.26933 -16.8672,-4.39453 z m 0.6621,10.58593 c 2.1509,-0.009 4.2632,0.19567 5.9649,1.05079 3.8508,1.93508 3.9377,7.6914 0.3164,9.9082 -3.511,2.14914 -8.5499,1.43359 -12.4766,1.43359 v -12.16015 c 1.8546,0 4.0444,-0.22328 6.1953,-0.23243 z" />
    <path
       style="display:inline;fill:#040607;fill-opacity:1;stroke:none"
       d="m 1173.0973,-216.57974 v 52.48 h 27.2 c 1.8117,0 8.095,0.97188 9.2711,-0.51312 1.4386,-1.81633 0.3289,-8.06422 0.3289,-10.36688 h -24.64 v -10.88 h 21.76 v -10.24 h -21.76 v -9.92 h 23.04 v -10.56 h -35.2"
       id="path17" />
    <path
       style="display:inline;fill:#040607;fill-opacity:1;stroke:none"
       d="m 1058.5373,-216.57974 v 52.48 h 27.2 c 1.8117,0 8.095,0.97188 9.2711,-0.51312 1.4386,-1.81641 0.3289,-8.06422 0.3289,-10.36688 h -24.64 v -10.88 h 21.76 v -10.24 h -21.76 v -9.92 h 23.04 v -10.56 h -35.2"
       id="path16" />
    <path
       style="display:inline;fill:#040607;fill-opacity:1;stroke:none"
       d="m 974.69735,-216.57974 c 2.78477,12.14797 6.78766,24.18141 10.24,36.16 l 3.10688,10.88 c 0.4139,1.44204 0.58226,3.45907 1.46226,4.69829 0.63446,0.89343 1.82282,0.73968 2.79086,0.74171 2.22211,0.005 7.89975,1.02422 9.69505,-0.3289 1.8445,-1.39008 2.5217,-7.38446 3.1499,-9.5911 2.3775,-8.35273 4.1214,-17.66359 7.635,-25.6 2.741,8.57172 5.0048,17.30039 7.5904,25.92 0.6483,2.16125 1.2525,7.95016 3.1329,9.2711 0.9126,0.64117 2.622,0.3289 3.6767,0.3289 h 8.64 l 10.3749,-36.48 4.3451,-16 h -13.12 l -8.32,34.88 h -0.32 c -1.1575,-8.58875 -4.645,-17.19007 -6.7604,-25.6 -0.5163,-2.05257 -1.0632,-7.63734 -2.7524,-8.95109 -0.8444,-0.6568 -2.6057,-0.32891 -3.6072,-0.32891 h -9.6 l -5.8957,22.4 -3.06425,12.16 h -0.64 c -0.94015,-11.50445 -5.66461,-23.24109 -8,-34.56 h -13.76"
       id="path15" />
    <path
       id="path27"
       style="display:inline;fill:#040607;fill-opacity:1;stroke:none"
       d="m 926.07031,-217.16992 c -6.13331,-0.0861 -12.43085,0.58984 -17.61328,0.58984 v 52.48047 h 12.48047 v -20.80078 l 4.03906,0.33008 3,4.79101 5.80469,10.5586 2.71875,4.60742 4.27734,0.51367 h 10.56055 l -13.44141,-22.7207 c 11.65129,-2.7675 14.82017,-19.61945 4.80079,-26.36719 -4.52434,-3.04699 -10.49365,-3.89634 -16.62696,-3.98242 z m 1.24805,10.5918 c 2.23171,0.003 4.41619,0.24929 6.09766,1.22656 3.51114,2.04063 3.46983,7.6825 -0.002,9.7207 -3.59847,2.11227 -8.48832,1.45117 -12.47656,1.45117 v -12.16015 c 1.87043,0 4.14915,-0.24108 6.38086,-0.23828 z" />
    <path
       style="display:inline;fill:#040607;fill-opacity:1;stroke:none"
       d="m 861.09735,-216.57974 v 52.48 h 36.48 v -10.88 h -24.32 v -10.88 h 21.76 v -10.24 h -21.76 v -9.92 h 23.04 v -10.56 h -35.2"
       id="path12" />
    <path
       style="display:inline;fill:#040607;fill-opacity:1;stroke:none"
       d="m 801.89735,-216.57974 v 38.4 9.92 l 0.32887,3.64688 3.19113,0.51312 h 9.28 v -22.08 h 20.48 v 22.08 h 9.28 l 3.19113,-0.51312 0.32887,-3.64688 v -9.92 -38.4 h -12.8 v 19.84 h -20.48 v -19.84 h -12.8"
       id="path11" />
    <path
       style="display:inline;fill:#040607;fill-opacity:1;stroke:none"
       d="m 751.33735,-216.57974 v 10.56 h 15.04 v 41.92 h 12.48 v -30.72 c 0,-2.26367 -1.13469,-9.03914 0.51309,-10.68687 0.87488,-0.87492 2.8459,-0.51313 3.96691,-0.51313 h 10.56 v -10.56 h -42.56"
       id="path10" />
    <path
       style="display:inline;fill:#040607;fill-opacity:1;stroke:none"
       d="m 709.09735,-216.57974 v 52.48 h 27.2 c 1.8116,0 8.095,0.97188 9.27113,-0.51312 1.4386,-1.81633 0.32887,-8.06422 0.32887,-10.36688 h -24.64 v -10.88 h 21.76 v -10.24 h -21.76 v -9.92 h 23.04 v -10.56 h -35.2"
       id="path9" />
    <path
       style="display:inline;fill:#040607;fill-opacity:1;stroke:none"
       d="m 535.97735,-216.57974 v 10.56 h 14.72 v 41.92 h 8.96 l 3.32692,-0.3289 0.51308,-2.8711 v -7.36 -31.36 h 14.72 v -10.56 h -42.24"
       id="path8" />
    <path
       style="display:inline;fill:#040607;fill-opacity:1;stroke:none"
       d="m 1131.1773,-178.81974 -8.64,8.32 v 0.32 c 10.4003,9.05719 35.1389,12.16704 39.2845,-5.44 0.5455,-2.31687 0.5972,-4.99328 0.34,-7.36 -0.8611,-7.92265 -9.2121,-10.87562 -15.6245,-13.09507 -2.6607,-0.92094 -6.3421,-1.60563 -7.9268,-4.19774 -2.1359,-3.49359 1.5322,-6.54672 4.7268,-7.14914 4.2968,-0.81031 8.1983,1.41102 11.2,4.28195 2.3247,-1.63765 4.0944,-4.05281 6.0786,-6.08 0.6214,-0.63492 1.7575,-1.52617 1.4908,-2.54742 -0.874,-3.34679 -8.5412,-5.19023 -11.4094,-5.77133 -10.8869,-2.20593 -24.703,2.35438 -25.5714,15.03875 -0.7218,10.54344 8.2098,14.25594 16.6114,17.06664 3.6148,1.2093 9.3379,3.68821 7.2869,8.53211 -3.1173,7.3625 -14.4316,2.20735 -17.8469,-1.91875"
       id="path7" />
    <path
       style="display:inline;fill:#040607;fill-opacity:1;stroke:none"
       d="m 696.29735,-195.13974 h -21.76 v 10.24 h 10.24 c 0,2.26391 0.94137,7.23719 -0.32887,9.14594 -1.32976,1.99828 -6.22902,1.75758 -8.31113,1.73281 -9.91547,-0.11789 -15.58277,-8.33632 -15.35531,-17.59875 0.23816,-9.6982 9.4648,-16.9289 18.87531,-14.94843 1.9341,0.40711 3.80035,1.16172 5.44,2.26351 0.78227,0.52563 1.84723,1.75321 2.85137,1.74 0.82691,-0.0109 1.47086,-0.99187 1.96469,-1.53656 1.2,-1.32359 6.04793,-5.46109 5.36765,-7.34594 -0.50828,-1.40828 -2.54898,-2.33828 -3.78371,-2.97039 -3.75512,-1.92219 -7.65191,-3.04687 -11.84,-3.49531 -15.09496,-1.61602 -31.13859,7.28359 -32.29137,23.73312 -0.27976,3.99235 -0.20175,8.30407 0.94297,12.16 4.2852,14.4343 18.58633,20.43641 32.6284,18.93313 4.0334,-0.43188 11.88547,-0.94906 14.84692,-4.1168 1.29488,-1.38508 0.51308,-5.65851 0.51308,-7.45633 v -20.48"
       id="path6" />
    <path
       id="path24"
       style="display:inline;fill:#040607;fill-opacity:1;stroke:none"
       d="m 611.03516,-218.27734 c -1.24378,-0.004 -2.47949,0.0721 -3.69727,0.23242 -6.35642,0.83711 -12.37285,2.57289 -17.28125,6.96094 -10.19848,9.11727 -11.33893,27.43 -2.73047,38.02343 6.30201,7.75516 16.56926,11.3257 26.41211,10.14844 4.86711,-0.58211 9.67047,-1.99538 13.75977,-4.77734 12.30414,-8.37047 15.2482,-27.64984 6.42383,-39.60938 -5.13851,-6.96411 -14.18029,-10.95051 -22.88672,-10.97851 z m -1.21485,11.56445 c 18.53784,-0.49793 21.37188,29.80488 2.31641,32.28125 -19.56849,2.54296 -23.36908,-29.63242 -4.16016,-32.13477 0.63047,-0.0821 1.24576,-0.13042 1.84375,-0.14648 z" />
    <path
       style="display:inline;fill:#02774a;fill-opacity:1;stroke:none"
       d="m 1254.6973,-591.61973 c 0,9.79789 -1.9157,19.8939 -4.0242,29.44 -8.8152,39.91226 -31.8033,73.78636 -63.4958,99.26273 -25.3062,20.34273 -55.1148,35.24645 -82.88,51.90516 -15.6239,9.37418 -31.2094,18.92207 -47.04,27.94222 -11.0024,6.2691 -22.8382,12.00614 -28.48,24.08989 h 226.24 v -165.12 -47.68 -13.44 l -0.32,-6.4"
       id="path3" />
    <path
       style="display:inline;fill:#040607;fill-opacity:1;stroke:none"
       d="m 1079.0173,-762.17973 v 0.32 c 70.9088,0 141.2966,43.02351 166.4161,110.4 5.1879,13.91511 9.2639,29.54551 9.2639,44.48 h 0.32 v -155.2 h -176"
       id="path2" />
    <path
       style="display:inline;fill:#040607;fill-opacity:1;stroke:none"
       d="m 536.29735,-762.17973 v 511.35999 h 360.96 v -75.83999 -20.16 c 0,-5.55008 -0.32926,-10.46657 1.79309,-15.68 13.65254,-33.53653 -1.79309,3.52 -1.79309,3.52 h -247.04 v -97.92 h 132.16 v -100.48 h -132.16 v -97.28 h 247.04 v -107.52 h -360.96"
       id="path22" />
  </g>
</svg>
