<?xml version="1.0" encoding="UTF-8" standalone="no"?>
<!-- Created with Inkscape (http://www.inkscape.org/) -->

<svg
   width="148.83728mm"
   height="122.04102mm"
   viewBox="0 0 148.83728 122.04102"
   version="1.1"
   id="svg1"
   xmlns="http://www.w3.org/2000/svg"
   xmlns:svg="http://www.w3.org/2000/svg">
  <defs
     id="defs1" />
  <g
     id="layer1"
     transform="translate(-30.691666,-87.577082)">
    <path
       id="path2"
       d="m 60.063943,137.04393 c 0,-22.2444 18.049874,-40.245944 40.246647,-40.245944 22.24511,0 40.24524,18.001544 40.24524,40.245944 0,22.24582 -18.00013,40.24665 -40.24524,40.24665 -22.196773,0 -40.246647,-18.00083 -40.246647,-40.24665"
       style="fill:#1b458f;fill-opacity:1;fill-rule:nonzero;stroke:none;stroke-width:0.352777" />
    <path
       id="path3"
       d="m 104.31039,147.435 c 0,-15.26892 12.34193,-27.61191 27.61086,-27.61191 15.27069,0 27.61121,12.34299 27.61121,27.61191 0,15.26893 -12.34052,27.61121 -27.61121,27.61121 -15.26893,0 -27.61086,-12.34228 -27.61086,-27.61121"
       style="fill:#1b458f;fill-opacity:1;fill-rule:nonzero;stroke:none;stroke-width:0.352777" />
    <path
       id="path4"
       d="m 73.478669,137.23867 c 0,-14.92744 12.098512,-27.02596 27.025951,-27.02596 14.92885,0 27.0256,12.09852 27.0256,27.02596 0,14.92779 -12.09675,27.02559 -27.0256,27.02559 -14.927439,0 -27.025951,-12.0978 -27.025951,-27.02559"
       style="fill:#ed1c24;fill-opacity:1;fill-rule:nonzero;stroke:none;stroke-width:0.352777" />
    <path
       id="path5"
       d="M 95.384052,116.45794 H 77.626984 l 0.04904,41.02594 h 18.000837 v -9.26853 H 85.96877 v -7.12294 h 8.780287 v -9.02406 H 85.96877 v -6.34188 h 9.317566 z"
       style="fill:#ffffff;fill-opacity:1;fill-rule:nonzero;stroke:none;stroke-width:0.352777" />
    <path
       id="path6"
       d="m 107.43247,124.89815 c 1.31763,0.33972 1.95122,1.46226 1.95122,3.51119 0,2.19569 0,3.17148 -0.73167,4.1462 -0.48718,0.53728 -0.82973,0.78105 -1.21955,0.92781 v 7.85354 c 2.24402,0.2928 1.75648,3.61067 1.80552,5.17101 l 0.0977,7.12329 c 0.048,0.82797 0.19473,1.80375 0.29245,2.53612 0.0483,0.73201 0.14605,0.78105 0.48754,1.36631 l 8.68433,-0.0977 -0.0977,-0.53658 c -0.43956,-0.48824 -0.83044,-0.78034 -0.97614,-1.95192 -0.097,-1.12183 -0.24447,-2.58409 -0.2928,-4.77978 0,-1.12254 0.0483,-2.19534 0,-3.07446 0,-0.92675 0,-2.1456 -0.0498,-2.92629 -0.14605,-2.29271 -0.38946,-3.85375 -1.07279,-4.87892 -0.68298,-1.0227 -1.80411,-1.7078 -3.31647,-2.04752 l -0.34148,-0.0981 c 0.77928,-0.19544 2.29235,-0.24448 4.09716,-3.26813 0.82938,-1.75613 1.2192,-4.00156 1.2192,-6.73242 0,-3.56199 -0.68263,-6.19513 -2.09621,-7.90328 -1.36631,-1.75613 -3.31787,-2.73191 -5.80637,-2.73191 h -2.63419 z m -1.95157,8.68256 v -8.78028 c 0.78105,-0.0981 1.41464,-0.0981 1.95157,0.0977 V 116.5066 H 97.286229 v 41.027 h 8.145641 v -16.19673 h 1.70815 0.29245 v -7.85354 c -0.29245,0.049 -0.58526,0.0974 -0.97543,0.0974 h -0.97614"
       style="fill:#ffffff;fill-opacity:1;fill-rule:evenodd;stroke:none;stroke-width:0.352777" />
    <path
       id="path7"
       d="m 52.600221,143.83173 0.194734,1.40793 0.9271,-0.0981 v 1.65806 l -1.95086,0.24483 -0.4318,-3.21275 z m 3.320698,0 0.142524,0.96837 1.659112,-0.24376 v 1.65805 l -4.0005,0.58526 v -1.65806 l 1.170871,-0.19473 -0.150283,-1.11513 z m 11.217275,21.94454 1.462265,-1.12148 -1.462265,-1.99884 z m -4.488391,3.36621 4.488391,-3.36621 v -3.12032 l -1.952273,-2.53824 -1.122185,0.83009 2.43981,3.21875 -1.464379,1.12254 -2.194279,-2.92665 -0.780344,0.58526 v 0.48754 l 1.950861,2.58515 -1.268588,0.97579 -0.682273,-0.87807 v 2.29341 z m -0.585259,-7.80521 v -1.75578 l 2.096911,-1.12183 0.732014,1.3656 z m 0,-3.17042 v -2.39077 l 0.634294,-0.0974 0.585258,1.12184 z m 0,4.78085 -0.244827,0.19403 0.244827,0.29351 z m 0,3.17041 -1.707091,-2.29164 -1.122892,0.82832 2.829983,3.75673 z m 0,-10.34203 v 2.39077 l -2.538235,2.78095 2.538235,-1.36631 v 1.75578 l -3.805414,1.99989 -0.536575,-1.07279 v -1.56104 l 3.171121,-3.41419 -3.171121,0.58526 v -1.41534 z m -4.341989,0.48824 4.097162,-2.19463 -0.730956,-1.3663 -3.366206,1.80481 z m 0,-3.41524 v -1.70709 l 1.414288,-0.4385 -1.170517,-3.90384 1.31727,-0.38947 1.659115,5.46382 z m 0,-6.63469 v -1.65805 l 1.268589,-0.19474 0.195792,1.65806 z m 0,4.9276 v 1.70709 l -3.951462,1.22061 -0.04904,-0.14675 v -4.73181 l 0.878064,2.87761 1.561042,-0.48719 -1.073856,-3.46322 1.220613,-0.39052 1.072795,3.51119 z m 0,3.36621 v 1.75612 l -0.585611,0.29281 0.585611,-0.0981 v 1.41534 l -2.146652,0.39017 -1.073857,-2.04928 z m 0,6.19513 v 1.56104 l -0.536575,-0.97578 z m -4.0005,-11.5122 v 4.73181 l -1.609371,-5.21935 1.366309,-0.43956 z"
       style="fill:#ed1c24;fill-opacity:1;fill-rule:evenodd;stroke:none;stroke-width:0.352777" />
    <path
       id="path8"
       d="m 53.302251,126.95625 -0.408517,2.1844 0.829027,0.14676 v 1.70709 l -2.487435,-0.48825 0.690385,-3.55 z m 2.942518,0 -0.52211,2.72168 1.80481,0.34079 0.195086,-0.92604 v 2.63383 l -3.999794,-0.73201 v -1.70709 l 0.73166,0.14569 0.475192,-2.47685 z m 3.30059,0 -0.992716,4.96535 -0.830088,-0.19509 v -2.63383 l 0.413456,-2.13643 z m -8.205258,16.87548 -0.104775,-0.78775 c -0.04939,-0.34149 -0.04939,-0.63324 0.04833,-0.9271 0.04904,-0.24342 0.145698,-0.53623 0.291748,-0.73096 0.195792,-0.19579 0.390525,-0.39052 0.635,-0.53657 0.195085,-0.14676 0.43956,-0.19474 0.732015,-0.24448 0.292803,-0.048 0.536575,-0.048 0.780343,0 v 1.56104 c -0.09772,0 -0.194733,0 -0.292806,0.049 -0.341487,0.048 -0.585259,0.1457 -0.732012,0.39052 -0.146757,0.19474 -0.194734,0.48754 -0.146757,0.87807 l 0.04903,0.34819 z m 3.402542,0 -0.09278,-0.69003 c -0.04868,-0.34149 -0.14605,-0.6343 -0.341842,-0.78105 -0.146756,-0.0977 -0.341135,-0.19474 -0.585258,-0.19474 v -1.56104 c 0.14605,0 0.292807,0.0497 0.390877,0.0977 0.390173,0.14676 0.633238,0.38982 0.877713,0.82903 0.04833,-0.24377 0.09772,-0.43921 0.195085,-0.58526 0.09772,-0.1457 0.243417,-0.24377 0.390173,-0.34149 0.14605,-0.0977 0.292804,-0.19508 0.438502,-0.24412 0.195085,-0.0967 0.390877,-0.1457 0.58561,-0.19474 l 0.390525,-0.0487 c 0.195792,-0.0483 0.34149,-0.0981 0.488598,-0.0981 0.09666,-0.048 0.145699,-0.048 0.242711,-0.0977 v 1.61008 c -0.341136,0.049 -0.633587,0.14605 -0.9271,0.24377 -0.389467,0.0981 -0.633587,0.24482 -0.829027,0.43956 -0.145698,0.24377 -0.194734,0.53622 -0.145698,0.92675 l 0.101248,0.69003 z m 2.979912,-2.30011 v -1.61008 c 0.04974,0 0.147463,-0.048 0.244829,-0.048 0.145696,-0.0981 0.243417,-0.14675 0.340429,-0.24377 l 0.24483,1.61008 c -0.24483,0.14605 -0.536575,0.24307 -0.830088,0.29175 m 0,-3.46322 v -4.24392 c 0.293513,0.29246 0.488246,0.58526 0.635,0.87771 0.14605,0.39053 0.195088,0.73131 0.195088,1.12184 -0.04904,0.58526 -0.146757,1.07385 -0.39088,1.51236 -0.09666,0.2928 -0.291745,0.53728 -0.439208,0.73201 m 0,-4.39067 v -1.17087 h 0.78105 l -0.04833,1.07385 z m 0,-1.17087 v 1.17087 l -0.14605,0.0487 c 0.04904,0.049 0.09772,0.049 0.14605,0.0981 v 4.24392 c -0.14605,0.14605 -0.242711,0.2928 -0.389819,0.43885 -0.390525,0.29351 -0.780698,0.48825 -1.26859,0.63395 -0.487537,0.14605 -1.024466,0.24376 -1.560335,0.24376 -0.244475,-0.0487 -0.536927,-0.0487 -0.78105,-0.0977 v -1.7071 c 0.292807,0.0977 0.536575,0.14605 0.829382,0.14605 0.341487,0 0.634293,-0.0483 0.975076,-0.097 0.293511,-0.049 0.536927,-0.14605 0.781402,-0.34078 0.243417,-0.14746 0.438857,-0.34149 0.585965,-0.58561 0.145698,-0.24448 0.242358,-0.58526 0.242358,-0.92675 0.05009,-0.53728 -0.09666,-0.97684 -0.341489,-1.26859 -0.291746,-0.34149 -0.682977,-0.53728 -1.170517,-0.58526 l -0.09772,1.65806 -1.2192,-0.0497 0.146402,-3.12068 z m -3.999794,5.07329 v 1.7071 c -0.243768,-0.048 -0.48754,-0.14605 -0.732015,-0.24271 -0.487537,-0.1958 -0.926041,-0.43957 -1.267883,-0.78105 -0.342193,-0.29175 -0.585258,-0.68334 -0.78105,-1.17087 -0.194379,-0.43957 -0.291745,-0.97508 -0.243417,-1.5621 0,-0.38877 0.09772,-0.73131 0.194734,-1.0728 0.146756,-0.38947 0.342196,-0.68227 0.536223,-0.97508 0.244123,-0.2928 0.536575,-0.53657 0.879123,-0.68333 0.341487,-0.19473 0.731308,-0.29245 1.121479,-0.34043 l -0.04868,1.60937 c -0.390525,0.0487 -0.731308,0.24342 -0.975783,0.53728 -0.195085,0.24271 -0.292804,0.58526 -0.340783,0.97473 0,0.38982 0.04798,0.68333 0.194029,0.97508 0.146754,0.24553 0.341487,0.4392 0.536927,0.63535 0.244123,0.1457 0.537633,0.29245 0.829382,0.38946 h 0.09772"
       style="fill:#ed1c24;fill-opacity:1;fill-rule:evenodd;stroke:none;stroke-width:0.352777" />
    <path
       id="path9"
       d="m 67.138194,101.64551 v 0.32349 l 3.854098,4.78085 1.218846,-0.97614 -3.317169,-4.04953 4.732515,2.87901 1.024819,-0.78034 -0.806802,-2.17734 h -1.422048 l 0.276931,0.71402 -1.137708,-0.71402 h -4.423482 v 0.32349 l -0.261408,-0.32349 z m 8.111419,0 0.670279,0.81174 v -0.81174 h 1.33985 l 0.02469,0.0307 -1.218848,0.97613 -0.145696,-0.19508 v -0.81174 z m 50.140307,0 -0.24871,1.34761 -1.36596,-0.78035 v -0.53657 l 0.008,-0.0307 z m 4.4577,0 0.51329,0.42121 c 0.0981,0.097 0.14675,0.14605 0.24377,0.19403 v 3.75673 c -0.097,0.0977 -0.1457,0.19579 -0.24377,0.29281 -0.0977,0.14675 -0.14605,0.29351 -0.24377,0.43956 -0.049,0.14675 -0.0977,0.29245 -0.0977,0.39052 l -1.26788,-1.02517 c 0.097,-0.24342 0.24306,-0.48754 0.43885,-0.78105 0.19579,-0.24377 0.38982,-0.53552 0.53728,-0.77929 0.19474,-0.34148 0.29175,-0.635 0.24377,-0.87877 0,-0.24376 -0.14605,-0.53622 -0.48859,-0.78105 l -1.26789,-1.07279 -1.85349,2.24366 -0.53764,-0.43779 v -1.51342 l 0.39935,-0.46919 z m 2.30787,0 c -0.0504,0.11994 -0.12771,0.24623 -0.23424,0.37218 -0.24272,0.24306 -0.48754,0.43956 -0.73131,0.43956 -0.19403,0 -0.38947,-0.0497 -0.58526,-0.1965 v 3.75673 c 0,0 0.049,-0.048 0.049,-0.097 l 0.29281,-0.34149 c 0.0977,-0.14676 0.19544,-0.29281 0.29245,-0.4886 0.097,-0.1457 0.14676,-0.29175 0.19474,-0.48719 0,-0.19508 0.0497,-0.34184 0,-0.53728 -0.048,-0.14605 -0.0977,-0.34078 -0.19474,-0.48753 0.43956,0.0977 0.83009,0.0977 1.17158,0 0.34149,-0.14605 0.63359,-0.38982 0.92604,-0.73131 0.19508,-0.19474 0.34255,-0.43956 0.39052,-0.68333 0.0635,-0.1577 0.10654,-0.33655 0.11501,-0.52247 z m -80.229779,25.31074 0.382765,-1.96215 1.316567,0.24377 -0.322792,1.71838 z m 3.003902,0 0.208492,-1.08408 1.267883,0.24447 -0.161219,0.83961 z m 3.206398,0 0.171802,-0.88829 1.366308,0.24377 -0.128762,0.64452 z M 130.60468,107.9193 v -0.73025 l 5.17137,-4.7318 3.75673,4.19453 -1.02517,0.9278 -2.6349,-2.92664 -1.21885,1.07279 2.43946,2.68217 -0.92675,0.87807 -2.43946,-2.73121 -1.36666,1.21885 2.68429,3.02472 -1.02482,0.92674 z m 0,-0.73025 v 0.73025 l -0.38982,-0.43744 z m -4.78085,-5.07435 -0.73166,0.87842 0.73166,0.635 z m -2.04858,-0.4385 v 0.53657 l -0.097,-0.0981 z m -56.637056,9.70738 v -1.70638 l 0.829734,0.63359 z m 0,-1.70638 v 1.70638 l -0.195085,0.24448 -2.29235,-1.85314 -2.586215,-0.3422 v -1.61008 l 1.853142,0.29246 -1.170869,-3.21945 1.122538,-1.46332 1.8542,5.07259 z m -5.07365,8.43879 v -1.61043 c 0.292807,-0.19438 0.488598,-0.4385 0.682273,-0.73095 0.245534,-0.43956 0.293511,-0.87912 0.147461,-1.26859 -0.147461,-0.39053 -0.390173,-0.73131 -0.829734,-1.02482 l 0.780344,-1.41464 c 0.391231,0.24377 0.733073,0.58561 0.97649,0.87842 0.243768,0.34149 0.438502,0.73201 0.487539,1.12148 0.09701,0.34254 0.14605,0.73307 0.04833,1.17087 -0.04833,0.39052 -0.194379,0.78105 -0.43956,1.17051 -0.243065,0.53729 -0.585258,0.92781 -0.975077,1.22061 -0.292806,0.24378 -0.585258,0.38947 -0.878065,0.48754 m 0,-10.29335 v 1.61008 l -2.683933,-0.39052 1.172633,-1.46262 z m 0,8.68292 v 1.61043 c -0.145698,0.048 -0.292452,0.0977 -0.438502,0.14676 -0.439562,0.097 -0.926748,0.097 -1.414639,0.0487 -0.488244,-0.0977 -0.976842,-0.29351 -1.464382,-0.53693 -0.389466,-0.24376 -0.730953,-0.48753 -1.024466,-0.78105 v -5.21934 c 0,-0.049 0.04974,-0.049 0.04974,-0.0981 0.292807,-0.24271 0.63359,-0.43921 0.974725,-0.58526 0.341842,-0.14676 0.683332,-0.24271 1.072798,-0.24271 0.391584,0 0.781402,0.0959 1.171223,0.24271 l -0.779639,1.41534 c -0.145698,-0.0497 -0.34149,-0.0977 -0.537282,-0.0977 -0.195437,0 -0.341487,0.048 -0.53622,0.14676 -0.195088,0.0487 -0.340783,0.14569 -0.48754,0.29174 -0.146756,0.14676 -0.244475,0.29281 -0.390525,0.43957 -0.146756,0.34254 -0.243768,0.63429 -0.243768,0.92604 0,0.29351 0.04904,0.58702 0.195791,0.82973 0.145696,0.29281 0.340784,0.53728 0.535162,0.73237 0.244123,0.19544 0.48754,0.39052 0.78105,0.53657 0.291748,0.14676 0.585613,0.29246 0.877713,0.39053 0.29351,0.0487 0.585258,0.0967 0.878769,0.0487 0.291748,0 0.536927,-0.0977 0.779991,-0.24483 m -4.341989,8.78135 v -1.65912 l 2.488848,0.87913 -0.488244,1.46226 z m 0,-2.92665 v -1.46332 l 1.220258,-0.24377 -1.220258,-0.43956 v -1.65841 l 4.049537,1.41464 -0.535871,1.56034 z m 0,-10.58615 v 5.21934 c -0.09701,-0.0483 -0.14605,-0.14605 -0.195086,-0.19508 -0.340431,-0.39053 -0.585258,-0.77999 -0.779991,-1.26753 -0.14605,-0.43956 -0.19544,-0.87912 -0.14605,-1.41535 0.04833,-0.48648 0.195085,-0.97578 0.48754,-1.51165 0.145695,-0.29351 0.390876,-0.58526 0.633587,-0.82973 m 0,6.78109 v 1.65841 l -3.512254,-1.21955 0.488595,-1.46332 z m 0,2.34174 v 1.46332 l -2.243667,0.53623 2.243667,0.7313 v 1.65912 l -3.999794,-1.36561 v -2.09761 z m -3.999794,0.92675 v 2.09761 l -1.12254,-0.39052 0.537282,-1.56104 0.585258,-0.14605"
       style="fill:#ed1c24;fill-opacity:1;fill-rule:evenodd;stroke:none;stroke-width:0.352777" />
    <path
       id="path10"
       d="m 66.875021,101.64551 -0.566208,-0.70133 0.829381,-0.68227 v 1.3836 h 4.423482 l -3.448757,-2.164649 -0.974725,0.781049 v 1.3836 z m 6.967715,0 -1.143352,-3.091749 2.54917,3.091749 h 0.669574 v -1.677109 l 1.341614,1.677109 h -1.341614 v -1.677109 l -3.364442,-4.097515 -1.805869,1.462617 1.673577,4.312007 z m 49.940274,0 0.28434,-1.23755 -0.2928,-0.14605 v -1.464378 l 0.53728,0.341842 0.58526,-2.878667 -1.12254,0.926746 v -1.804104 l 1.36666,-1.12254 0.68192,0.439209 v 4.58611 l -0.43392,2.359382 z m 2.43911,0 3.69923,-4.360336 0.68333,0.58561 v 1.658057 l -0.24377,-0.242713 -1.36631,1.658052 0.85302,0.70133 z m 7.61929,0 c 0.005,-0.10478 0,-0.20779 -0.018,-0.3108 -0.0483,-0.24448 -0.097,-0.48754 -0.24306,-0.78105 -0.14676,-0.24377 -0.34043,-0.48754 -0.58526,-0.682274 l -2.39042,-2.000602 v 1.658057 l 1.12289,0.927799 c 0.29175,0.24307 0.43956,0.48754 0.48719,0.73131 0.0275,0.1397 0.008,0.29422 -0.06,0.45579 z m -8.01828,-2.359382 0.78211,-4.14655 -0.78211,-0.43956 z m -2.04858,-3.902779 v 1.804104 l -1.12078,0.927806 1.12078,0.682273 v 1.464378 l -2.1456,-1.318328 -1.31692,1.170518 -0.29351,-0.194734 v -1.561397 z m -3.75603,1.804104 c 0.0977,-0.145696 0.19579,-0.291746 0.29351,-0.487537 l -0.29351,-0.09772 z m 0,-2.87796 v -2.731911 0.04904 c 0.34184,0.244475 0.53658,0.536223 0.73131,0.878064 0.19579,0.293511 0.29351,0.634294 0.34255,1.024819 0.048,0.389467 0.048,0.779992 -0.0977,1.219552 z m 0,-2.731911 v 2.731911 l -0.48754,-0.145699 c 0.0483,-0.194733 0.0483,-0.390525 0,-0.585258 0,-0.196495 -0.0977,-0.341842 -0.14675,-0.487537 -0.0967,-0.194733 -0.24448,-0.342548 -0.39053,-0.488246 -0.14569,-0.09807 -0.29139,-0.195792 -0.48718,-0.293862 -0.34185,-0.14605 -0.68369,-0.194734 -0.97543,-0.14605 -0.29352,0.04904 -0.53693,0.14605 -0.78105,0.29351 -0.24342,0.146402 -0.43921,0.389818 -0.63394,0.634648 -0.19474,0.24271 -0.34255,0.53622 -0.48825,0.827969 -0.0974,0.29351 -0.19438,0.58561 -0.24412,0.9271 0,0.29351 0,0.585258 0.0497,0.878768 0.0483,0.244123 0.19438,0.535871 0.38982,0.731308 0.14605,0.243772 0.43886,0.439563 0.78105,0.585613 0.48754,0.145696 0.87736,0.194734 1.26753,0 0.39088,-0.194029 0.68263,-0.487539 0.92816,-0.9271 l 1.21849,0.487537 v 0.585259 c -0.1457,0.195791 -0.34149,0.390525 -0.48754,0.585258 -0.34148,0.24483 -0.63429,0.488598 -1.02446,0.635355 -0.34185,0.145695 -0.73131,0.194733 -1.17087,0.194733 -0.38982,-0.04904 -0.82903,-0.146757 -1.26859,-0.293513 -0.53657,-0.243062 -0.97614,-0.536575 -1.31692,-0.878062 -0.34114,-0.340783 -0.58526,-0.731308 -0.73272,-1.170517 -0.19367,-0.43815 -0.24271,-0.926396 -0.24271,-1.414639 0.049,-0.536575 0.1457,-1.024819 0.34078,-1.512359 0.24448,-0.535516 0.48754,-0.975077 0.82974,-1.365602 0.34078,-0.390525 0.73131,-0.682273 1.12183,-0.878064 0.43956,-0.243769 0.9271,-0.34149 1.41464,-0.34149 0.48754,-0.04798 1.02482,0.04904 1.56104,0.292806 0.34149,0.146757 0.68227,0.34149 0.97578,0.536223 m 0,6.780387 -1.17051,0.879123 1.17051,0.682274 z m -14.24411,-3.023658 v -0.09701 h 0.0483 l -0.0483,-0.09772 1.36561,-7.170912 1.65805,0.340783 -1.17051,6.000044 3.56094,0.682273 -0.24377,1.36666 z m 0,-0.194733 -0.0497,0.194733 h 0.0497 v -0.09701 l -1.65981,-0.04974 -0.53587,-1.706033 -1.36631,-0.04974 v -1.219906 h 0.97613 l -0.87806,-2.780594 -0.0981,0.293511 v -2.147711 l 1.02517,0.04904 z m -3.56199,-7.562496 v 2.147711 l -0.97473,2.438048 0.97473,0.04904 v 1.219906 l -1.41429,-0.04974 -0.68333,1.659818 -1.609723,-0.05009 v -0.04798 l 3.073403,-7.366704 z m -3.707343,4.879269 v -0.439208 z m 0,-0.439208 v 0.439208 c -0.04833,0.341842 -0.09807,0.634648 -0.195088,0.877358 -0.09772,0.390525 -0.292803,0.733073 -0.585258,1.072798 -0.24412,0.293511 -0.536575,0.537279 -0.878062,0.683329 -0.390525,0.195792 -0.78105,0.34149 -1.26859,0.390525 -0.585258,0.04868 -1.072798,0.04868 -1.560335,-0.09701 -0.488598,-0.14605 -0.927806,-0.391583 -1.26859,-0.683331 -0.341841,-0.34149 -0.635352,-0.682977 -0.878065,-1.170517 -0.146753,-0.34149 -0.292803,-0.731308 -0.342545,-1.170869 v -1.805871 -0.04798 c 0.09807,-0.487539 0.29351,-0.974725 0.537633,-1.365602 0.292452,-0.391231 0.633236,-0.684037 1.072796,-0.975783 0.439208,-0.243771 0.926748,-0.391231 1.512358,-0.488246 0.391232,-0.04903 0.78105,-0.04903 1.171223,0.04868 0.390877,0.04833 0.731309,0.195792 1.024115,0.390525 0.341487,0.195088 0.585258,0.438857 0.829027,0.732367 0.243768,0.340783 0.390525,0.683331 0.488243,1.120775 l -1.561041,0.195791 c -0.09772,-0.195791 -0.146754,-0.341487 -0.243769,-0.487537 -0.145698,-0.145698 -0.29351,-0.293512 -0.439208,-0.390525 -0.146402,-0.09772 -0.341842,-0.14605 -0.536575,-0.195087 -0.195085,-0.04868 -0.390525,-0.04868 -0.585258,-0.04868 -0.342549,0.04868 -0.683684,0.195088 -0.926394,0.340784 -0.244475,0.195791 -0.391231,0.390525 -0.537281,0.683331 -0.146757,0.244475 -0.19544,0.537281 -0.244475,0.829733 -0.04833,0.340784 -0.04833,0.63359 0,0.975784 0.04903,0.291748 0.09772,0.585258 0.194733,0.877358 0.147815,0.29351 0.29351,0.536575 0.488598,0.78105 0.195437,0.194733 0.39017,0.389467 0.68227,0.48754 0.293513,0.09772 0.587024,0.146753 0.976842,0.09772 0.48754,-0.04798 0.877713,-0.29351 1.072798,-0.585258 0.29351,-0.390525 0.390173,-0.78105 0.390173,-1.317625 z m 0,2.926643 -0.04833,0.04798 h 0.04833 z m -6.976533,1.025173 v -0.391583 l 0.04974,0.391583 z m 0,-5.416198 v 1.805871 c -0.04798,-0.09772 -0.04798,-0.195791 -0.04798,-0.292454 -0.09807,-0.537279 -0.09807,-1.024819 0.04798,-1.513417 m 0,5.024615 -1.755775,-6.92644 -1.316921,0.34149 v 1.219906 l 1.560338,6.146094 1.512358,-0.389467 z m -3.072696,0.196498 v -3.025423 c 0.195088,0.536575 0.291748,1.024818 0.291748,1.512358 0.05009,0.439209 -0.04762,0.926748 -0.193675,1.316567 -0.04904,0.04974 -0.04904,0.09772 -0.09807,0.196498 m 0,-6.781448 v 1.219906 l -0.29351,-1.122187 z m 0,3.756025 c -0.195437,-0.58561 -0.439208,-1.072798 -0.78105,-1.462617 -0.291746,-0.390525 -0.633235,-0.682977 -1.024819,-0.829733 -0.389466,-0.195085 -0.828675,-0.340783 -1.266825,-0.340783 -0.439208,0 -0.878768,0.09701 -1.317273,0.24271 l -1.024818,0.342548 v 1.462265 l 1.07315,-0.389467 c 0.390173,-0.09772 0.732014,-0.146756 1.024466,-0.146756 0.292807,0 0.585259,0.09878 0.780344,0.244475 0.243417,0.14605 0.439208,0.340783 0.585258,0.633589 0.195792,0.243769 0.34149,0.586317 0.439209,0.9271 0.14605,0.389467 0.244123,0.732012 0.195791,1.024467 0,0.341842 -0.04974,0.58561 -0.14746,0.829379 -0.09701,0.194733 -0.243065,0.389466 -0.43956,0.536929 -0.19403,0.146402 -0.389821,0.243062 -0.633238,0.340077 l -1.365602,0.489302 -1.512358,-4.391025 v 5.072592 l 0.390525,1.170516 3.072693,-1.072795 c 0.537282,-0.194733 0.975784,-0.437798 1.31798,-0.731308 0.292452,-0.291748 0.487891,-0.585259 0.633587,-0.926042 z m -5.414785,5.952066 v -0.09772 z m 0,-7.999941 v 1.462265 h -0.04904 l 0.04904,0.09807 v 5.072592 l -2.048934,-5.950654 z m 0,7.902223 -0.634294,-1.171575 -3.56094,1.902883 -0.878062,-1.610079 3.21945,-1.707092 -0.585258,-1.121833 -3.21945,1.707091 -0.731663,-1.414637 3.463573,-1.902531 -0.634293,-1.218848 -3.561998,1.902883 v 3.364442 l 2.097968,4.001207 5.024967,-2.634193 z m -7.122935,-4.633738 v 3.364442 l -1.414286,-2.633485 1.414286,-0.730957"
       style="fill:#ed1c24;fill-opacity:1;fill-rule:evenodd;stroke:none;stroke-width:0.352777" />
    <path
       id="path11"
       d="m 112.94462,148.11833 h 2.68288 V 146.8 h -2.68288 z"
       style="fill:#3d3c9b;fill-opacity:1;fill-rule:nonzero;stroke:none;stroke-width:0.352777" />
    <path
       id="path12"
       d="m 115.82329,157.3858 -0.68333,-1.17051 2.29341,-1.31692 0.68298,1.17122 z"
       style="fill:#3d3c9b;fill-opacity:1;fill-rule:nonzero;stroke:none;stroke-width:0.352777" />
    <path
       id="path13"
       d="m 124.21411,133.18984 -1.12113,0.68262 -1.36737,-2.2927 1.17158,-0.68298 z"
       style="fill:#3d3c9b;fill-opacity:1;fill-rule:nonzero;stroke:none;stroke-width:0.352777" />
    <path
       id="path14"
       d="m 118.11635,138.84874 -0.68298,1.17052 -2.29341,-1.36525 0.68333,-1.12183 z"
       style="fill:#3d3c9b;fill-opacity:1;fill-rule:nonzero;stroke:none;stroke-width:0.352777" />
    <path
       id="path15"
       d="m 118.21442,143.82503 h 5.8046 V 142.996 c 0,-0.58526 0.049,-1.02482 0.049,-1.36631 0,-0.2928 0.0977,-0.87806 0.58526,-1.02411 0.19544,-0.097 0.19544,-0.097 0.43885,-0.097 0.39018,0 0.63394,0.19509 0.87877,0.48754 0.24377,0.34079 0.1457,0.82903 0.1457,1.65806 0,0.73236 -0.0967,1.31692 -0.34078,1.75613 -0.24448,0.48753 -0.29351,0.63535 -0.82974,1.22061 l -3.21945,3.75567 c -1.17157,1.36631 -1.5621,2.14594 -2.04964,3.3655 -0.43779,1.21955 -0.73131,2.87796 -0.73131,4.29295 h 12.39027 v -4.29295 h -6.04908 c 0.0977,-0.29175 3.3662,-3.90278 3.3662,-3.90278 0.73307,-0.73096 1.80587,-1.95086 2.14736,-3.02366 0.2928,-0.97649 0.48719,-2.0006 0.48719,-3.31823 0,-0.77999 0,-1.41323 -0.19439,-2.09656 -0.19508,-0.63535 -0.2928,-1.22061 -0.83008,-1.70815 -0.48754,-0.48754 -1.12289,-1.07279 -1.9999,-1.31656 -0.87877,-0.29351 -1.75577,-0.48825 -3.12208,-0.48825 -1.46297,0 -2.09797,0.14605 -3.02436,0.48825 -0.87878,0.29175 -2.09833,1.02482 -2.58587,1.60937 -0.48753,0.58526 -0.82867,1.26859 -1.02446,2.09867 -0.14605,0.82797 -0.2921,1.70604 -0.2921,2.73086"
       style="fill:#ffffff;fill-opacity:1;fill-rule:nonzero;stroke:none;stroke-width:0.352777" />
    <path
       id="path16"
       d="m 138.80112,149.28885 h -1.415 v 4.29154 h 1.36561 v 3.46392 h 4.73251 v -3.46392 h 1.61008 v -4.29154 h -1.61008 l -0.049,-11.90272 h -5.75628 l -0.29281,0.53551 v 8.19574 l 1.36561,-3.0734 0.0494,2.19568 z m -1.415,0 h -1.41428 l 1.41428,-3.17147 v -8.19574 l -5.41478,11.36721 v 4.29154 h 5.41478 z"
       style="fill:#ffffff;fill-opacity:1;fill-rule:evenodd;stroke:none;stroke-width:0.352777" />
    <path
       id="path17"
       d="m 123.14131,126.60418 c 2.1456,-0.92675 4.48839,-1.46332 6.87811,-1.65805"
       style="fill:none;stroke:#ffffff;stroke-width:0.15875;stroke-linecap:butt;stroke-linejoin:miter;stroke-miterlimit:4;stroke-dasharray:none;stroke-opacity:1" />
    <path
       id="path18"
       d="m 119.14152,166.21583 c -1.36631,-0.92745 -2.68323,-2.04928 -3.80577,-3.26813"
       style="fill:none;stroke:#ffffff;stroke-width:0.15875;stroke-linecap:butt;stroke-linejoin:miter;stroke-miterlimit:4;stroke-dasharray:none;stroke-opacity:1" />
    <path
       id="path19"
       d="m 130.21486,169.97186 c -3.0734,-0.19474 -5.95136,-1.02376 -8.53652,-2.29341"
       style="fill:none;stroke:#ffffff;stroke-width:0.15875;stroke-linecap:butt;stroke-linejoin:miter;stroke-miterlimit:4;stroke-dasharray:none;stroke-opacity:1" />
    <path
       id="path20"
       d="m 141.67908,167.72854 c -2.63384,1.26824 -5.56154,2.09762 -8.63318,2.24332"
       style="fill:none;stroke:#ffffff;stroke-width:0.15875;stroke-linecap:butt;stroke-linejoin:miter;stroke-miterlimit:4;stroke-dasharray:none;stroke-opacity:1" />
    <path
       id="path21"
       d="m 150.46042,159.97202 c -1.65841,2.53647 -3.80471,4.68277 -6.34259,6.34188"
       style="fill:none;stroke:#ffffff;stroke-width:0.15875;stroke-linecap:butt;stroke-linejoin:miter;stroke-miterlimit:4;stroke-dasharray:none;stroke-opacity:1" />
    <path
       id="path22"
       d="m 154.21645,148.94736 c -0.19509,3.12138 -1.02518,6.04908 -2.34174,8.68327"
       style="fill:none;stroke:#ffffff;stroke-width:0.15875;stroke-linecap:butt;stroke-linejoin:miter;stroke-miterlimit:4;stroke-dasharray:none;stroke-opacity:1" />
    <path
       id="path23"
       d="m 151.92375,137.48314 c 1.31762,2.63419 2.14629,5.60987 2.2927,8.68327"
       style="fill:none;stroke:#ffffff;stroke-width:0.15875;stroke-linecap:butt;stroke-linejoin:miter;stroke-miterlimit:4;stroke-dasharray:none;stroke-opacity:1" />
    <path
       id="path24"
       d="m 144.21555,128.65311 c 2.43911,1.65841 4.58646,3.80577 6.24487,6.24417"
       style="fill:none;stroke:#ffffff;stroke-width:0.15875;stroke-linecap:butt;stroke-linejoin:miter;stroke-miterlimit:4;stroke-dasharray:none;stroke-opacity:1" />
    <path
       id="path25"
       d="m 132.89738,124.94436 c 3.17112,0.14782 6.19548,0.97578 8.92775,2.34139"
       style="fill:none;stroke:#ffffff;stroke-width:0.15875;stroke-linecap:butt;stroke-linejoin:miter;stroke-miterlimit:4;stroke-dasharray:none;stroke-opacity:1" />
    <path
       id="path26"
       d="m 113.77471,161.48508 6.63434,1.80446 -4.87856,4.9269 z"
       style="fill:#ffffff;fill-opacity:1;fill-rule:nonzero;stroke:none;stroke-width:0.352777" />
    <path
       id="path27"
       d="m 141.6304,163.33822 -1.17088,0.68228 -1.31762,-2.34069 1.17157,-0.63429 z m -1.31693,-29.46399 -1.17157,-0.68334 1.31762,-2.2934 1.17088,0.68333 z m -17.41628,30.14627 -1.17052,-0.68228 1.36631,-2.2927 1.12113,0.63429 z m 23.02545,-24.00124 -0.68262,-1.17052 2.34174,-1.31656 0.63323,1.12183 z m 4.48769,8.09907 h -2.68288 V 146.8 h 2.68288 z m -19.36609,15.36665 h 1.31621 v 2.68252 h -1.31621 z m 0,-34.73309 h 1.31621 v 2.6349 h -1.31621 z m 17.17075,27.4634 -0.63323,1.17228 -2.34174,-1.31798 0.68262,-1.17122 z"
       style="fill:#ed1c24;fill-opacity:1;fill-rule:evenodd;stroke:none;stroke-width:0.352777" />
    <path
       id="path28"
       d="m 167.28369,204.88521 v -4.439 h 2.48779 V 192.641 h -0.0487 l -2.4391,3.85375 v -8.68257 l 1.07385,-1.56175 h 8.53652 v 14.19578 h 2.6349 v 4.439 h -2.6349 v 4.39103 h -7.366 v -4.39103 z m 0,-17.07303 v 8.68257 l -2.48814,3.95146 h 2.48814 v 4.439 h -8.4388 v -4.63373 z m -81.858202,17.07303 v -4.439 h 2.488141 V 192.641 h -0.09701 l -2.391127,3.85375 v -8.68257 l 1.024818,-1.56175 h 8.585555 v 14.19578 h 2.634543 v 4.439 h -2.634543 v 4.39103 h -7.366 v -4.39103 z m 34.050812,4.39103 h 7.90293 v -23.46572 h -5.70724 c -0.24412,0.68509 -0.53693,1.27035 -0.97613,1.75789 -0.39053,0.4378 -0.87807,0.82903 -1.5113,1.12113 -0.63536,0.24447 -1.36666,0.43956 -2.24543,0.58702 -0.87736,0.097 -1.90183,0.19368 -3.12173,0.19368 v 3.80612 h 5.6589 z m 16.53752,-15.5127 h 7.36565 v -0.97578 c 0,-0.68263 0.0497,-1.21955 0.19649,-1.61043 0.14605,-0.43921 0.2921,-0.73096 0.48649,-0.97543 0.24482,-0.19509 0.4893,-0.34184 0.73236,-0.43956 0.24377,-0.048 0.53728,-0.097 0.77999,-0.097 0.63536,0 1.1229,0.14676 1.51307,0.53658 0.34078,0.39017 0.53657,1.0735 0.53657,2.04928 0,0.87877 -0.14569,1.61043 -0.48824,2.19569 -0.34079,0.48754 -0.87807,1.0728 -1.60902,1.65806 l -5.26944,4.19558 c -1.75507,1.36631 -2.92594,2.82858 -3.56094,4.29296 -0.63324,1.46226 -0.9271,3.02471 -0.9271,4.68277 h 19.75696 v -4.63409 h -10.34132 c 0.14675,-0.34219 0.38946,-0.68298 0.77999,-1.02447 l 1.17087,-0.92639 4.63373,-3.51367 c 1.12289,-0.877 2.04999,-1.90217 2.73297,-2.97497 0.68333,-1.07386 1.02376,-2.39113 1.02376,-4.00015 0,-0.87842 -0.14605,-1.70709 -0.43956,-2.48814 -0.24271,-0.78035 -0.77928,-1.46297 -1.5113,-1.9999 -0.68298,-0.63359 -1.65805,-1.0728 -2.87866,-1.41464 -1.26859,-0.34149 -2.87867,-0.4893 -4.82883,-0.4893 -2.09761,0 -3.75673,0.19685 -5.02531,0.53763 -1.26718,0.39017 -2.24332,0.92675 -2.97533,1.65806 -0.68333,0.68333 -1.17087,1.51306 -1.41464,2.4892 -0.24342,0.97472 -0.38947,2.04752 -0.43921,3.26813 M 85.425488,187.8122 v 8.68257 l -2.536473,3.95146 h 2.536473 v 4.439 h -8.439502 v -4.63373 z m -21.317302,21.8059 v -3.70805 c 0.731308,0 1.268235,-0.24377 1.706385,-0.73131 0.390173,-0.4392 0.635,-1.3663 0.635,-2.78094 0,-1.36631 -0.244827,-2.29235 -0.635,-2.73156 -0.43815,-0.4886 -0.975077,-0.68262 -1.706385,-0.68262 v -3.65972 c 0.535517,0 1.02376,-0.19509 1.41464,-0.58526 0.389466,-0.34184 0.632883,-1.12183 0.632883,-2.29235 0,-0.53657 -0.09666,-1.02411 -0.193675,-1.3656 -0.09807,-0.39088 -0.293513,-0.68333 -0.488246,-0.87877 -0.146754,-0.19509 -0.341842,-0.34184 -0.634294,-0.43956 -0.195791,-0.048 -0.487539,-0.097 -0.731308,-0.097 v -3.8548 c 1.755775,0 3.218744,0.14781 4.438298,0.43991 1.219552,0.34114 2.195335,0.7807 2.975327,1.31798 0.78105,0.53552 1.366308,1.21885 1.659818,1.99919 0.389822,0.78176 0.585613,1.60973 0.585613,2.53753 0,0.48789 -0.09807,1.02482 -0.244829,1.51166 -0.09772,0.48824 -0.340784,0.97578 -0.634294,1.41534 -0.341135,0.38982 -0.828675,0.77999 -1.366308,1.12183 -0.585258,0.29281 -1.316215,0.53623 -2.193573,0.68298 v 0.0483 c 0.877358,0.14676 1.658408,0.39018 2.291646,0.73202 0.634294,0.34148 1.171575,0.73095 1.561745,1.21849 0.389822,0.43956 0.63359,0.97719 0.828675,1.61043 0.194734,0.58526 0.292455,1.22061 0.292455,1.85385 0,1.46438 -0.243417,2.68287 -0.731308,3.60997 -0.439209,0.97614 -1.12254,1.70815 -1.951567,2.29341 -0.878065,0.58526 -1.951921,0.92675 -3.21945,1.12183 -1.267883,0.19474 -2.683933,0.29281 -4.292248,0.29281 M 40.886591,189.66532 c 0.830437,0 1.413933,0.29245 1.755775,0.87771 0.391229,0.58667 0.585258,1.70815 0.585258,3.36621 v 7.75758 c 0,1.65806 -0.194029,2.78095 -0.585258,3.36621 -0.341842,0.58526 -0.925338,0.877 -1.755775,0.877 v 3.70805 c 1.755775,0 3.268837,-0.14605 4.53672,-0.48789 1.26859,-0.34149 2.341385,-0.92675 3.171119,-1.80552 0.829381,-0.92604 1.463675,-2.14595 1.8542,-3.65795 0.438504,-1.56069 0.633238,-3.51226 0.633238,-5.90374 0,-2.34103 -0.194734,-4.29224 -0.633238,-5.85328 -0.390525,-1.56034 -1.024819,-2.7806 -1.8542,-3.7077 -0.829734,-0.87842 -1.902529,-1.51236 -3.171119,-1.85385 -1.267883,-0.38982 -2.780945,-0.53763 -4.53672,-0.53763 z m 23.221595,-3.8548 v 3.8548 c -0.292452,0 -0.537281,0.049 -0.830085,0.097 -0.195088,0.0977 -0.438505,0.24447 -0.634296,0.43956 -0.14605,0.19544 -0.291746,0.48789 -0.389467,0.87877 -0.146754,0.34149 -0.195792,0.82903 -0.195792,1.3656 0,0.58526 0.04904,1.0728 0.195792,1.46297 0.09772,0.34184 0.243417,0.63429 0.389467,0.87842 0.195791,0.19544 0.439208,0.34113 0.634296,0.4392 0.292804,0.049 0.537633,0.097 0.830085,0.097 v 3.65972 c -0.732015,0 -1.317625,0.19402 -1.756127,0.68262 -0.391231,0.43921 -0.586317,1.36525 -0.586317,2.73156 0,1.41464 0.195086,2.34174 0.586317,2.78094 0.438502,0.48754 1.024112,0.73131 1.756127,0.73131 v 3.70805 c -1.610431,0 -3.0734,-0.0981 -4.34199,-0.29281 -1.219903,-0.19508 -2.292702,-0.53657 -3.17147,-1.12183 -0.877007,-0.58526 -1.561396,-1.31727 -1.999898,-2.29341 -0.48754,-0.9271 -0.683332,-2.14559 -0.683332,-3.60997 0,-1.41429 0.39088,-2.63384 1.220613,-3.60998 0.829027,-1.02482 2.097969,-1.61007 3.754967,-1.80481 v -0.0483 c -0.877713,-0.14675 -1.609373,-0.39017 -2.194632,-0.68298 -0.585258,-0.34184 -1.024818,-0.73201 -1.365601,-1.12183 -0.342549,-0.43956 -0.585965,-0.9271 -0.732015,-1.41534 -0.09772,-0.48684 -0.145698,-1.02377 -0.145698,-1.51166 0,-0.9278 0.145698,-1.75577 0.487539,-2.53753 0.390174,-0.78034 0.926749,-1.46367 1.707092,-1.99919 0.779992,-0.53728 1.80481,-0.97684 3.023658,-1.31798 1.220611,-0.2921 2.732617,-0.43991 4.440767,-0.43991 m -25.562277,15.8563 v -7.75758 c 0,-1.65806 0.194734,-2.77954 0.536224,-3.36621 0.389818,-0.58526 0.975076,-0.87771 1.804458,-0.87771 v -3.8548 c -1.756482,0 -3.268488,0.14781 -4.585407,0.53763 -1.268235,0.34149 -2.341033,0.97543 -3.171118,1.85385 -0.82903,0.9271 -1.463323,2.14736 -1.8542,3.7077 -0.390173,1.56104 -0.5842,3.51225 -0.5842,5.85328 0,2.39148 0.194027,4.34305 0.5842,5.90374 0.390877,1.512 1.02517,2.73191 1.8542,3.65795 0.830085,0.87877 1.902883,1.46403 3.171118,1.80552 1.316919,0.34184 2.828925,0.48789 4.585407,0.48789 v -3.70805 c -0.829382,0 -1.41464,-0.29174 -1.804458,-0.877 -0.34149,-0.58526 -0.536224,-1.70815 -0.536224,-3.36621"
       style="fill:#ed1c24;fill-opacity:1;fill-rule:evenodd;stroke:none;stroke-width:0.352777" />
  </g>
</svg>
