<?xml version="1.0" encoding="UTF-8" standalone="no"?>
<!-- Created with Inkscape (http://www.inkscape.org/) -->

<svg
   version="1.1"
   id="svg1"
   width="1236.942"
   height="492.03012"
   viewBox="0 0 1236.942 492.03012"
   xml:space="preserve"
   xmlns="http://www.w3.org/2000/svg"
   xmlns:svg="http://www.w3.org/2000/svg"><defs
     id="defs1" /><g
     id="g1"
     transform="translate(67.512364,-73.969881)"><path
       style="fill:#ed1b24;fill-opacity:1"
       d="m 977.55378,561.75 c 0.31759,-2.3375 0.96386,-6.275 1.43617,-8.75 0.47232,-2.475 1.36242,-7.425 1.97801,-11 0.61559,-3.575 1.54658,-8.75 2.06886,-11.5 1.02872,-5.41661 5.53648,-31.59011 6.97516,-40.5 0.48844,-3.025 1.38508,-8.2 1.99253,-11.5 0.60745,-3.3 1.48575,-8.25 1.95177,-11 0.46602,-2.75 1.81533,-10.4 2.99847,-17 1.18314,-6.6 2.55484,-14.475 3.04825,-17.5 0.4934,-3.025 1.3457,-7.975 1.8941,-11 0.5483,-3.025 1.6955,-9.775 2.5492,-15 0.8537,-5.225 1.9722,-11.525 2.4855,-14 1.8979,-9.14993 3.2996,-18.10194 2.8973,-18.5042 -0.2278,-0.22785 -4.8392,5.20684 -10.24749,12.07711 -12.0142,15.26192 -10.76785,14.59363 -26.89181,14.41925 -116.3624,-1.25843 -130.37605,-0.33211 -132.49193,8.75784 -6.80487,29.23425 -4.99117,34.66967 12.61644,37.80963 21.50481,3.83496 42.39332,0.43342 50.72293,-8.25984 8.07128,-8.42365 10.50553,-4.80961 6.53362,9.70021 -0.52695,1.925 -1.36309,5.08559 -1.85809,7.02353 -2.81,11.0013 -8.91085,14.09621 -31.53028,15.99502 -63.36434,5.3192 -76.76847,-11.51167 -60.14309,-75.51855 15.77159,-60.71981 27.88118,-73.58251 69.4606,-73.78042 35.77551,-0.17028 49.19465,13.80952 44.70195,46.56963 -3.04368,22.19412 44.49829,13.75676 64.29805,-11.41109 46.8674,-59.57402 50.0258,-63.31417 49.9799,-59.18482 -0.023,2.08176 -1.3833,11.10876 -2.9844,19.8067 -0.6075,3.3 -1.4743,8.25 -1.9264,11 -0.4521,2.75 -2.2565,13.1 -4.01,23 -1.7534,9.9 -3.5865,20.475 -4.0736,23.5 -0.487,3.025 -1.3342,7.975 -1.8826,11 -0.5483,3.025 -1.7118,9.775 -2.5855,15 -0.8737,5.225 -1.7554,10.2875 -1.9593,11.25 -0.6504,3.06942 0.367,1.89203 2.5925,-3 7.0012,-15.38987 12.0178,-26.06075 13.2808,-28.25 1.3633,-2.36312 111.2848,-4.69269 120.162,-2.5466 5.9408,1.43621 9.6562,9.2294 6.9215,14.51783 -3.7389,7.23012 -1.9346,7.02086 -60.5725,7.02503 -52.5575,0.004 -52.5575,0.004 -54.3837,4.25374 -1.0044,2.3375 -4.016,8.91687 -6.6925,14.62082 -2.6764,5.70395 -4.8662,10.49986 -4.8662,10.65758 0,0.15771 -1.9634,4.49084 -4.3632,9.62918 -2.3998,5.13833 -5.2848,11.36742 -6.4113,13.84242 -1.1264,2.475 -3.9365,8.55 -6.2445,13.5 -5.4416,11.67032 -27.04808,58.52381 -29.97475,65 -1.24275,2.75 -4.67756,10.11861 -7.6329,16.37468 C 984.41801,555.13075 982,560.5744 982,560.97167 982,561.92236 978.44883,566 977.62089,566 c -0.35449,0 -0.38469,-1.9125 -0.0671,-4.25 z M 903.16714,377.08333 C 904.25982,376.94684 906,367.31354 906,361.40112 c 0,-11.70398 -4.36084,-14.62543 -22,-14.73843 -19.5572,-0.1253 -25.97891,4.66376 -33.00929,24.61698 -1.75781,4.98892 30.22178,8.54606 52.17643,5.80366 z M 300,506.29377 c -8.02847,-2.93485 -8.89095,2.70265 12.92969,-84.51274 23.06009,-92.16938 22.06719,-86.57952 16.01392,-90.15527 -7.38768,-4.36401 -4.10664,-6.09431 12.13877,-6.40153 17.4604,-0.3302 19.89868,0.65997 19.94188,8.09835 0.0243,4.17742 0.0243,4.17742 5.25,-1.43653 7.2707,-7.81083 8.73809,-8.48205 20.22574,-9.25181 43.04588,-2.8844 55.04033,17.7616 41.02475,70.61576 -0.83861,3.1625 -2.1549,8.1125 -2.92509,11 -1.45223,5.44453 -8.04964,25.74237 -9.50712,29.25 -13.28393,31.96939 -19.3635,35.62061 -60.41283,36.28219 -31.01467,0.49986 -27.20059,-1.23316 -30.75427,13.97392 -2.49761,10.6879 -1.81195,14.21983 3.16035,16.27942 3.03882,1.25873 3.76798,3.7107 1.71421,5.76447 -1.22281,1.22281 -25.65956,1.64178 -28.8,0.49377 z m 75.26889,-61.19831 c 7.93369,-2.52585 16.4049,-15.992 20.6732,-32.8629 0.51938,-2.05291 1.38089,-5.30756 1.91447,-7.23256 13.7658,-49.66323 11.70715,-58.33449 -13.85656,-58.36544 -21.38726,-0.0259 -29.15007,8.58266 -35.94883,39.86544 -1.22655,5.64366 -8.27706,33.96678 -10.95298,44 -0.58675,2.2 -1.55066,6.025 -2.14202,8.5 -0.59137,2.475 -1.31711,5.32958 -1.61276,6.34352 -0.6441,2.20892 34.86805,1.99881 41.92548,-0.24806 z M 120.5,472.3128 C 86.616797,469.33963 74.808823,452.31218 82.835869,418 c 0.707673,-3.025 2.184058,-9.325 3.280854,-14 15.325217,-65.32243 28.914237,-81.01997 70.383277,-81.3042 38.45869,-0.26359 54.42965,20.09056 44.17931,56.3042 -6.47275,22.86772 -3.16972,21.4184 -49.67685,21.79754 -20.07365,0.16365 -36.83219,0.63219 -37.2412,1.0412 -0.73926,0.73926 -1.00952,1.89299 -4.25423,18.16126 -4.19213,21.01836 -0.8256,25.91847 19.34794,28.16166 21.6135,2.40331 39.01159,-1.04144 46.58139,-9.22293 9.11016,-9.84632 10.52555,3.6428 2.28594,21.78573 -4.16904,9.17986 -28.5049,14.10823 -57.2223,11.58834 z m 54.58886,-95.30188 c 1.74273,-0.0323 3.23833,-17.33124 1.84033,-21.28636 -4.42576,-12.52109 -35.86006,-13.12399 -45.95148,-0.88134 -6.82892,8.28466 -11.78551,21.92626 -8.12098,22.35066 1.91825,0.22215 37.01649,0.0992 52.23213,-0.18296 z M 470.5,471.5557 C 433.90845,466.00547 427.98491,440.93256 448.65792,379.10344 463.47422,334.79067 477.38951,322.8702 514.5,322.70012 560.4656,322.48945 570.6595,340.443 556.11917,396 539.34704,460.08449 518.15658,478.78428 470.5,471.5557 Z m 26.41809,-23.66079 c 14.36745,-2.41225 18.72489,-7.71301 27.2487,-33.14755 4.44125,-13.25242 6.9185,-22.75877 10.22743,-39.24736 4.54002,-22.62323 -0.46491,-28.89225 -22.97402,-28.77657 -22.60444,0.11617 -29.85165,8.18541 -39.54154,44.02657 -0.48326,1.7875 -1.29274,4.7125 -1.79884,6.5 -10.54699,37.25098 -9.23887,46.92078 6.81479,50.37596 7.26521,1.56366 11.93832,1.62643 20.02348,0.26895 z M 653.5,470.24309 c -10.45766,-0.89557 -13.43244,-4.19057 -11.6152,-12.86552 1.45189,-6.93095 6.38426,-27.14236 9.12157,-37.37757 3.00498,-11.2361 14.04178,-57.17692 14.59077,-60.7343 1.40568,-9.10857 -4.23073,-12.6597 -20.09714,-12.66188 -21.75981,-0.003 -29.34176,6.17431 -35.46681,28.89618 -1.18609,4.4 -2.54313,9.35 -3.01564,11 -13.66439,47.71584 -18.11833,73.64431 -13.08181,76.15528 9.20384,4.58861 4.90122,7.34472 -11.466,7.34472 -23.3641,0 -23.64602,-0.7729 -13.49561,-37 19.3374,-69.01571 24.92223,-102 17.27044,-102 -1.68566,0 -2.45332,-1.76694 -1.74173,-4.00895 2.42067,-7.62686 35.49716,-1.50377 35.49716,6.57121 0,3.65317 0,3.65317 5.95352,-1.85874 13.52464,-12.52143 51.46051,-13.10749 62.12636,-0.95977 8.18995,9.32785 8.02865,14.54893 -1.63214,52.83016 C 682.294,400.03326 678.447,415.525 677.89885,418 c -1.37011,6.18638 -2.3077,9.96748 -5.20728,21 -4.68456,17.8241 -4.4305,22.67854 1.28179,24.49154 2.2346,0.70924 2.82902,4.89453 0.86734,6.10691 -1.14539,0.70789 -15.52867,1.14237 -21.3407,0.64464 z m 45.17202,-0.35536 c -7.34184,-1.964 -8.90889,-4.83628 -6.98238,-12.79817 0.74386,-3.07426 1.79676,-7.80827 2.33976,-10.52004 1.74009,-8.68998 5.65393,-10.91542 9.05601,-5.14933 2.89612,4.90855 5.9623,5.57981 25.48752,5.57981 28.68062,0 34.61278,-2.65496 39.58099,-17.71461 5.56968,-16.88281 2.29338,-20.80544 -26.48179,-31.70601 -27.91895,-10.5762 -35.25063,-22.35937 -27.85708,-44.7707 7.69305,-23.31918 15.25245,-27.21274 53.59095,-27.60268 31.20638,-0.3174 31.37644,-0.28915 29.76241,4.94465 -0.56809,1.84214 -1.61681,5.357 -2.33049,7.81079 -2.74348,9.43269 -2.35827,9.29829 -28.63652,9.99136 -25.51195,0.67285 -26.22817,0.8692 -29.18176,7.99978 -4.05691,9.79425 0.22251,14.77698 18.09527,21.06914 35.90467,12.64036 44.67418,23.36909 39.4624,48.27877 -5.96964,28.53184 -18.26843,42.24054 -39.6187,44.1605 -9.80684,0.8819 -53.351,1.21203 -56.28659,0.42674 z m -761.343283,-1.34549 c -7.997313,-3.47878 -8.064233,-3.05546 15.177095,-96.00499 23.694736,-94.76284 23.020583,-90.20133 13.894527,-94.01444 -3.692947,-1.54301 -4.291053,-3.48926 -1.82893,-5.95138 4.428001,-4.428 94.014548,-1.6859 104.112143,3.1867 40.409898,19.49985 13.336104,104.69363 -33.433572,105.20625 -3.984043,0.0437 -4.192027,-1.84864 1.846266,16.79801 16.171431,49.93846 14.658487,46.83798 23.307485,47.76421 8.067342,0.86393 8.328308,1.47015 5.136964,11.93293 -3.404092,11.16027 -4.36775,11.8825 -16.505019,12.37 C 32.434614,470.49632 30.811711,469.25741 25.024853,451.5 23.232491,446 21.415424,440.6 20.986927,439.5 20.558429,438.4 16.969574,427.375 13.011692,415 9.0538108,402.625 5.0532741,390.25 4.1216108,387.5 1.3912921,379.44089 -21.040999,379.25831 -22.28939,387.28504 c -0.442816,2.84716 -3.389579,14.89954 -8.120937,33.21496 -9.717881,37.61861 -9.709468,39.8718 0.160327,42.93619 2.279926,0.70788 2.743614,2.1139 1.643011,4.98202 -0.827136,2.15549 -29.157059,2.25863 -34.064274,0.12403 z M 41.64213,353.7801 C 49.032929,349.73462 55.137614,338.63602 58.572248,323.00037 63.727543,299.53167 60.449134,297 24.902854,297 c -24.46569666,0 -24.46569666,0 -26.795998,9.75 -1.2816657,5.3625 -2.7028747,10.875 -3.1582421,12.25 -0.4553675,1.375 -2.2417898,8.575 -3.9698275,16 -1.7280374,7.425 -3.5551894,14.80465 -4.0603364,16.39922 -0.505148,1.59458 -0.91845,3.3152 -0.91845,3.82362 0,1.85323 52.088048,0.50265 55.64213,-1.44274 z M 199.2588,469.34183 c -4.60524,-0.98348 -6.45524,-6.93013 -4.28411,-13.77083 0.53607,-1.68905 1.65117,-5.96332 2.47799,-9.49838 2.11145,-9.02749 4.94629,-10.50944 8.78813,-4.59411 6.18357,9.52094 52.4747,7.65193 60.47759,-2.44179 12.95309,-16.33722 7.86419,-29.94165 -14.38023,-38.44347 -33.10384,-12.65229 -36.87391,-16.1457 -36.7932,-34.09325 0.0737,-16.38886 6.69027,-29.64593 18.44946,-36.96561 9.54404,-5.94083 66.74985,-6.83409 66.24381,-1.03439 -1.51055,17.3121 -3.71573,18.716 -30.55466,19.45216 -27.86237,0.76422 -30.42767,2.04556 -30.62714,15.29784 -0.0825,5.48248 1.54815,6.57759 21.99306,14.76984 32.50398,13.02429 37.2277,17.64805 37.26886,36.48016 0.0518,23.68732 -9.98258,43.35421 -26.14614,51.24522 -7.19454,3.51237 -60.90246,6.16162 -72.91342,3.59661 z M 103.41668,316 c 0.36362,-3.575 1.07565,-8.975 1.5823,-12 0.50665,-3.025 1.38914,-8.5375 1.9611,-12.25 0.57196,-3.7125 1.48992,-9.675 2.03992,-13.25 0.55,-3.575 1.45,-9.425 2,-13 0.55,-3.575 1.45,-9.425 2,-13 0.55,-3.575 1.45,-9.425 2,-13 0.55,-3.575 1.45,-9.425 2,-13 0.55,-3.575 1.45,-9.425 2,-13 0.55,-3.575 1.4343,-9.3125 1.9651,-12.75 0.53081,-3.4375 1.4585,-9.625 2.06153,-13.75 0.60304,-4.125 1.50675,-9.975 2.00826,-13 4.21405,-25.41852 4.22358,-25.36852 -3.03489,-15.92706 -3.025,3.93477 -5.95929,7.66554 -6.52064,8.29059 -0.56135,0.62506 -2.75306,3.27397 -4.87046,5.88647 -4.07492,5.02772 -116.6144996,7.93652 -123.392105,3.1893 -5.117941,-3.58475 -6.567324,-10.45266 -3.128499,-14.82442 4.50812,-5.73115 3.260167,-5.61488 60.267359,-5.61488 52.454975,0 52.454975,0 64.299665,-14.9141 56.83915,-71.568352 54.18579,-68.434004 54.4631,-64.3359 0.0651,0.9625 0.0264,2.2 -0.0861,2.75 -0.25775,1.260239 -3.43055,19.984318 -5.50714,32.5 -0.86693,5.225 -1.78942,10.625 -2.04999,12 -0.26057,1.375 -1.39373,7.675 -2.51815,14 -1.12441,6.325 -2.49722,13.975 -3.05069,17 -0.55346,3.025 -1.45174,8.2 -1.99617,11.5 -0.54443,3.3 -1.42607,8.475 -1.95921,11.5 -0.53313,3.025 -1.20655,7.525 -1.49647,10 -0.60783,5.18883 -1.47193,6.69529 10.18131,-17.75 6.31636,-13.25 6.31636,-13.25 59.72413,-13.25 59.6655,0 52.96607,1.85346 59.64006,-16.5 5.07489,-13.95594 6.25132,-17.13465 7.03186,-19 6.02248,-14.39273 6.17983,-19.89233 0.67084,-23.446468 -8.90162,-5.742899 -5.66919,-7.51479 14.28076,-7.828148 28.57012,-0.448756 25.05902,-9.416773 31.03706,79.274616 0.59314,8.8 1.50741,20.725 2.0317,26.5 0.5243,5.775 0.95203,13.51094 0.95052,17.19098 -0.003,7.35761 0.95228,9.10437 2.72731,4.9869 6.11177,-14.17731 9.54717,-22.22179 19.13739,-44.81294 6.10206,-14.37428 11.5426,-27.31323 12.09008,-28.75322 0.54749,-1.43999 1.8529,-4.52921 2.90092,-6.86494 13.87465,-30.92255 15.38998,-37.222626 9.75298,-40.548539 -3.83252,-2.261244 -4.52047,-4.198908 -2.18032,-6.141062 3.30991,-2.746978 36.41995,-0.937156 39.06004,2.135053 3.24866,3.780405 3.44419,8.635508 3.83828,95.307768 0.37001,81.37392 -0.0291,76.27571 6.2081,79.30597 2.94518,1.43088 4.46248,2.81085 4.46248,4.05859 0,3.79922 -2.20303,4.30011 -17.41755,3.96016 -21.43359,-0.47892 -19.02457,8.11588 -19.36848,-69.10208 -0.31091,-69.80932 3.02522,-72.42502 -41.80523,32.77736 -0.9375,2.2 -2.51453,5.8 -3.50451,8 -0.98998,2.2 -4.09691,9.4 -6.90429,16 -6.34369,14.91366 -4.86083,13.77325 -17.64371,13.56906 -12.49576,-0.19961 -12.02444,0.1696 -12.79174,-10.02058 -1.07533,-14.28111 -2.62042,-33.56909 -3.56862,-44.54848 -0.52249,-6.05 -1.42594,-17.3 -2.00767,-25 -0.58173,-7.7 -1.48414,-18.725 -2.00536,-24.5 -0.52123,-5.775 -1.22099,-14.4375 -1.55503,-19.25 -0.83889,-12.08583 -1.2722,-11.50418 -8.9394,12 -3.72282,11.4125 -10.24851,31.325 -14.50153,44.25 -18.82423,57.20715 -18.28397,54.71213 -12.57618,58.07981 9.24815,5.45655 5.11834,7.92388 -13.23213,7.90545 -22.07074,-0.0222 -23.02427,-1.15566 -16.63303,-19.77239 C 235.56832,249.32079 241.24458,232.8 246.15945,218.5 259.3455,180.13467 260,178.19933 260,177.57368 c 0,-2.9185 -85.63931,-0.28201 -86.93286,2.67632 -0.78159,1.7875 -5.89292,12.475 -11.3585,23.75 -9.32485,19.2363 -12.62266,26.09376 -26.08933,54.25 -2.95938,6.1875 -9.07899,18.9 -13.59913,28.25 -4.52014,9.35 -9.80881,20.3457 -11.7526,24.43489 -5.58287,11.74478 -7.68864,13.30165 -6.8509,5.06511 z m 356.89204,-40.50472 c -20.40347,-4.43483 -29.85201,-21.141 -25.37419,-44.86467 C 450.4122,148.62931 466.4334,126.8136 511,127.05397 c 37.73733,0.20354 51.45583,18.0603 43.05532,56.04321 C 549.03823,205.78191 550.7848,205 505.13081,205 c -34.43032,0 -37.12766,0.1256 -38.00762,1.76982 -2.08415,3.89426 -6.23864,27.3044 -5.54228,31.23018 0.14634,0.825 0.3005,2.67614 0.34258,4.11364 0.22482,7.67985 9.64251,10.90039 31.73042,10.85074 22.04284,-0.0496 27.61563,-1.47245 34.79904,-8.88522 7.965,-8.21932 10.14082,-5.16682 6.59923,9.25821 -3.98068,16.21345 -7.09446,19.42776 -21.48797,22.1817 -10.04808,1.92251 -44.37162,1.90718 -53.25549,-0.0238 z m 68.75924,-96.17402 C 537.17223,158.0054 521.09763,145.08581 495.6812,152.48741 486.43979,155.17863 474,171.60806 474,181.12212 c 0,2.67084 54.03972,0.9036 55.06796,-1.80086 z m 54.37767,96.2 C 573.18372,272.27894 567.53654,267.38516 563.22697,258 c -2.0594,-4.48485 -2.31511,-27.58915 -0.4095,-37 15.33005,-75.7076 31.41776,-92.01623 90.75644,-92.00274 12.07391,0.003 12.07391,0.003 14.37403,-9.74726 1.26506,-5.3625 2.73794,-11.23896 3.27305,-13.05881 1.28913,-4.38416 -0.37936,-8.330427 -4.24573,-10.041848 C 663.88275,94.780466 663.1328,92.267196 665.2,90.2 c 1.47123,-1.471226 25.4282,-1.672055 29.1826,-0.244635 7.41239,2.818185 8.6779,-4.500328 -16.86358,97.522665 -19.29124,77.057 -19.17994,76.42472 -14.04097,79.76278 C 671.94123,272.73814 668.56,275 651.87891,275 635.2188,275 632,273.58764 632,266.27742 c 0,-2.41103 -0.23316,-2.29411 -4.03242,2.02207 -7.15621,8.12988 -29.94724,11.82674 -44.52195,7.22177 z m 37.93835,-23.6887 c 13.42192,-3.80689 15.62238,-8.45771 28.66053,-60.5762 4.84917,-19.38401 9.12557,-36.21689 9.50311,-37.4064 0.68643,-2.16274 0.68643,-2.16274 -16.1806,-1.53581 -25.34649,0.94211 -31.24343,3.57616 -38.30614,17.11063 -5.02117,9.62221 -14.99903,42.37718 -15.04553,49.39096 -0.008,1.27366 -0.45999,3.14657 -1.00345,4.16202 -10.26342,19.17738 8.26473,35.69242 32.37208,28.8548 z m 74.94949,20.77786 c -3.25035,-2.79584 -3.46284,-7.26532 -0.81782,-17.20212 0.86498,-3.24956 1.97388,-7.7083 2.46422,-9.9083 0.49034,-2.2 1.37697,-5.8 1.9703,-8 0.59333,-2.2 1.49333,-5.8 2,-8 0.50667,-2.2 1.40667,-5.8 2,-8 0.59333,-2.2 1.49333,-5.8 2,-8 0.50667,-2.2 1.40667,-5.8 2,-8 0.59333,-2.2 1.48581,-5.8 1.98329,-8 0.49748,-2.2 2.3049,-9.4 4.01647,-16 1.71157,-6.6 3.50555,-13.8 3.98661,-16 0.48107,-2.2 1.53876,-6.475 2.35043,-9.5 3.29095,-12.26498 3.18556,-17.39786 -0.38046,-18.52967 -4.38857,-1.39288 -5.83958,-4.39441 -3.33508,-6.8989 2.57001,-2.57001 25.80588,-2.24847 30.17857,0.41761 5.54559,3.38121 5.77943,1.89479 -10.77772,68.51096 -17.66786,71.08503 -16.70382,63.72751 -9.08916,69.36856 2.04835,1.51745 2.219,2.0721 1.21482,3.94844 -1.87735,3.50786 -27.64097,3.3403 -31.76447,-0.20658 z m 38.7896,-161.23677 c -2.70472,-1.89446 -2.43658,-8.14771 0.72947,-17.01168 1.73661,-4.86197 1.73661,-4.86197 10.19203,-5.157024 16.38886,-0.571892 18.70388,3.545277 11.96289,21.275434 -1.22089,3.2112 -18.60622,3.88981 -22.88439,0.89327 z"
       id="path1" /></g></svg>
