<?xml version="1.0" encoding="UTF-8" standalone="no"?>
<!-- Created with Inkscape (http://www.inkscape.org/) -->

<svg
   version="1.1"
   id="svg1"
   width="852.5"
   height="257.16995"
   viewBox="0 0 852.5 257.16995"
   xmlns="http://www.w3.org/2000/svg"
   xmlns:svg="http://www.w3.org/2000/svg">
  <defs
     id="defs1" />
  <g
     id="g1"
     transform="translate(-0.16666667,-67.029102)">
    <path
       id="path24"
       style="fill:#244b5a;fill-opacity:1"
       d="m 307.83334,218.65497 c -6.86978,-0.69633 -16.46692,-3.3606 -22.51195,-6.24955 -13.5888,-6.49416 -21.45313,-18.52427 -22.0557,-33.73875 l -0.099,-2.5 h 18.33334 18.33333 l 0.2116,2.33334 c 0.68856,7.593 3.79963,11.36106 10.9037,13.20634 3.33223,0.86554 9.59274,0.95323 12.80137,0.17929 4.55203,-1.09797 7.96016,-3.54595 8.94555,-6.4254 0.73448,-2.14625 0.58433,-5.07124 -0.34424,-6.70565 -1.73305,-3.05043 -5.53414,-4.65071 -23.61247,-9.94103 -19.91906,-5.82898 -26.7209,-8.76854 -32.34805,-13.97991 -6.59369,-6.10649 -9.39147,-14.30089 -8.41794,-24.65525 1.12074,-11.92016 5.83084,-20.02721 15.2899,-26.31705 6.03726,-4.014508 13.16101,-6.719714 21.28567,-8.083127 4.52919,-0.76005 17.24891,-0.847784 22.11824,-0.152559 12.23843,1.747355 22.44613,6.298266 28.83334,12.854796 5.48326,5.62862 8.53506,12.95183 9.34984,22.43621 l 0.23624,2.75 h -17.37637 -17.37638 v -1.60729 c 0,-5.19184 -4.24178,-9.06341 -11.28861,-10.30338 -4.788,-0.8425 -11.444,0.27728 -14.21609,2.39166 -2.05154,1.56479 -2.79246,4.92293 -1.6277,7.37747 0.64239,1.35375 2.62056,3.2002 4.40229,4.10917 2.80047,1.4287 9.71222,3.52651 20.39678,6.19069 18.01001,4.49079 24.44131,7.13819 32.00587,13.17501 7.04789,5.6245 10.46151,14.39214 9.8774,25.36943 -0.60048,11.28496 -4.99616,20.40362 -12.88536,26.73019 -6.34913,5.09154 -17.11846,9.23095 -28.43956,10.93133 -5.08185,0.76327 -16.08324,1.09452 -20.72502,0.62402 z m 67.58241,-61.7383 0.0843,-59.083334 18.67446,-0.08607 18.67446,-0.08608 17.15888,31.523104 17.15887,31.5231 0.085,-31.52036 0.085,-31.520361 H 464.66836 482 v 59.169561 59.16957 l -17.89328,-0.0862 -17.89328,-0.0862 -18.02339,-32.08919 -18.02338,-32.08919 -0.085,32.17252 -0.085,32.17253 H 392.6641 375.3315 Z m 120.25093,-0.0833 v -59.1667 h 18.33333 18.33334 v 59.16667 59.16667 h -18.33334 -18.33333 z m 49.6673,-59.204464 V 156.81445 216 H 563.66602 582 v -17.83398 -17.83204 h 13.48242 c 14.62695,0 18.34,-0.28017 24.32031,-1.83398 19.35107,-5.02784 29.86329,-19.02184 29.86329,-39.75 0,-6.59708 -1.19153,-12.14473 -3.875,-18.0332 -1.36621,-2.99797 -4.78815,-8.23373 -6.96094,-10.65039 -3.63592,-4.04403 -11.09067,-8.44669 -17.32031,-10.230472 -6.97073,-1.995992 -6.03767,-1.950571 -42.59375,-2.083985 z M 582,128.33398 l 9.75,0.006 c 14.58803,0.009 17.29458,0.47324 20.37891,3.50586 2.16173,2.12549 2.70507,3.73018 2.70507,7.99414 0,3.48535 -0.0568,3.79027 -1.10351,5.91602 -0.64701,1.314 -1.57339,2.59879 -2.24024,3.10742 -1.42016,1.08321 -5.19348,2.3011 -8.60351,2.77539 C 601.45621,151.83764 596.17098,152 591.14258,152 H 582 V 140.16602 Z M 656.33398,97.632812 V 156.81641 216 H 674.66602 693 V 195.5 175 h 10.45508 c 11.08276,0 12.90954,0.17465 15.83008,1.51172 5.61685,2.57148 7.75543,7.28976 8.89257,19.6289 0.62362,6.76704 1.60226,13.73693 2.41602,17.19336 l 0.58984,2.5 18.41797,0.0859 18.41797,0.0859 -0.47656,-0.92383 c -1.46824,-2.83925 -2.33993,-8.11989 -3.20313,-19.41601 -0.37125,-4.85833 -0.95933,-10.18204 -1.30664,-11.83204 -0.88603,-4.20925 -2.74081,-9.1607 -4.60937,-12.30273 -2.05832,-3.46111 -5.91477,-7.38635 -8.86133,-9.01953 l -2.27148,-1.25977 1.8125,-0.91406 c 9.44205,-4.76267 15.22351,-15.60773 15.22851,-28.56445 0.004,-9.55516 -2.6193,-16.62853 -8.33203,-22.46875 -5.49034,-5.61287 -12.31954,-9.08748 -21.33398,-10.857424 -2.5186,-0.494518 -7.02534,-0.570984 -40.58204,-0.685547 z M 693,126.2832 l 12.08398,0.13282 c 10.90729,0.12045 12.29827,0.19891 14.29102,0.80273 6.01983,1.82404 8.62021,5.44756 8.20312,11.43164 -0.35739,5.12781 -2.70928,8.0328 -7.89648,9.75586 -2.04649,0.67979 -2.93613,0.73312 -14.43164,0.85156 L 693,149.38477 V 137.83398 Z M 778.33335,124 v -18 h -6.66666 -6.66667 v -4.33333 -4.333334 h 18.33333 18.33334 V 101.66667 106 h -6.66667 -6.66667 v 18 18 h -5 -5 z m 26,-4.33333 V 97.333336 h 7.12376 7.12376 l 5.12624,15.156014 c 2.81943,8.3358 5.19232,14.9733 5.27307,14.75 0.0808,-0.22331 2.28019,-7.00601 4.88763,-15.07268 l 4.74081,-14.666667 7.02903,-0.08996 7.02904,-0.08996 V 119.66004 142 h -4.66334 -4.66334 l -0.0867,-15.32196 -0.0867,-15.32196 -5.30104,15.33181 -5.30104,15.33181 -3.99709,-0.0932 -3.99709,-0.0932 -5.20187,-14.90173 -5.20187,-14.90172 -0.0867,14.98506 L 813.99323,142 h -4.82994 -4.82994 z" />
    <path
       id="path1"
       style="display:inline;fill:#f06024;fill-opacity:1"
       d="m 110.92532,323.86003 c -1.96185,-0.56463 3.83177,2.89178 -53.650241,-32.00716 C 22.502729,270.7416 7.6533601,261.55216 6.4083262,260.37429 5.35448,259.37729 4.2860569,257.93403 3.7416595,256.77207 L 2.8333334,254.83334 V 221.993 189.15265 l 1.0833109,-2.20051 c 1.2843192,-2.60883 3.3764287,-4.65707 6.0249738,-5.89867 1.6719219,-0.78376 2.2983719,-0.8868 5.3917159,-0.8868 3.160859,0 3.684673,0.0907 5.40586,0.9359 2.623407,1.28825 4.758578,3.46717 6.032256,6.15585 l 1.061884,2.24159 0.09502,27.33333 0.09502,27.33333 42.904981,26.05889 c 23.59774,14.33238 43.080045,26.10738 43.294015,26.16666 0.21396,0.0593 19.75147,-11.36033 43.41667,-25.37691 l 43.02763,-25.4847 v -42.95164 c 0,-23.6234 -0.1125,-42.88262 -0.25,-42.79827 -19.35048,11.87167 -78.45979,47.57256 -79.75,48.16748 -2.55333,1.17734 -6.44955,1.37866 -9,0.46502 C 109.17887,207.522 5.9068153,146.44125 3.9299228,144.69179 2.9473032,143.82221 1.9495471,142.4689 1.263256,141.07485 0.2440363,139.00452 0.16666667,138.61118 0.16666667,135.5 c 0,-3.10103 0.0795046,-3.50884 1.08042653,-5.54201 0.6354657,-1.29081 1.7337008,-2.80153 2.6666668,-3.66822 1.9965134,-1.85471 104.51365,-58.108744 107.20123,-58.824332 2.34449,-0.624238 4.45795,-0.580082 6.77198,0.141484 2.98212,0.929889 51.51072,29.030436 53.54702,31.006469 0.88036,0.854303 2.08036,2.525069 2.66667,3.712819 0.96536,1.95564 1.06487,2.44345 1.05394,5.16666 -0.0153,3.81401 -0.86095,6.10073 -3.20423,8.66465 -2.38864,2.61355 -5.17133,3.92187 -8.73219,4.10555 -2.11833,0.10926 -3.12276,-0.004 -4.55151,-0.51251 -1.00833,-0.35899 -11.35833,-6.16035 -23,-12.89191 C 124.025,100.12708 114.40708,94.592569 114.29352,94.559723 113.8531,94.432344 38.672697,135.80592 38.912431,136.04374 c 0.31346,0.31096 76.410529,45.2896 76.623159,45.2896 0.084,0 20.81041,-12.55282 46.05861,-27.89516 25.4956,-15.49268 46.72092,-28.17945 47.73914,-28.53458 2.63333,-0.91845 6.79261,-0.69296 9.41193,0.51025 2.43138,1.11688 5.04163,3.71963 6.19201,6.17422 l 0.89606,1.91193 v 61.50001 61.5 l -1.0488,2.00542 c -0.57684,1.10298 -1.77684,2.67937 -2.66667,3.50309 -1.7427,1.61324 -101.19873,60.73998 -103.61787,61.60096 -1.87294,0.66659 -5.69038,0.79286 -7.57468,0.25055 z m 542.15803,-28.18359 c -0.67771,-0.29062 -0.75,-0.55099 -0.75,-2.70135 0,-2.13173 0.0608,-2.35579 0.58333,-2.14996 0.32084,0.12638 1.33837,0.31007 2.26119,0.40819 2.34845,0.2497 3.3837,-0.67854 4.96213,-4.44921 l 1.20463,-2.87769 -5.7068,-14.36987 c -3.13873,-7.90343 -5.78232,-14.55738 -5.87463,-14.78654 -0.12677,-0.3147 0.55465,-0.41611 2.78449,-0.4144 l 2.95233,0.002 4.15084,11.6644 c 2.28296,6.41543 4.24278,11.66441 4.35515,11.66441 0.11237,0 1.99449,-5.24917 4.18249,-11.66481 l 3.97818,-11.6648 2.75,-0.002 c 1.5125,-0.001 2.75,0.0519 2.75,0.1176 0,0.74726 -13.9756,36.19614 -14.80285,37.54721 -0.61741,1.00833 -1.73374,2.27031 -2.48074,2.8044 -1.16941,0.83611 -1.71896,0.98654 -3.95396,1.08236 -1.42768,0.0612 -2.93328,-0.0334 -3.34578,-0.21033 z M 317.16602,253.72461 c -3.99339,0.13363 -6.17918,0.99084 -8.82618,3.4668 -3.16599,2.96142 -4.67382,6.73482 -4.67382,11.69531 0,8.75264 4.34145,14.66993 11.5625,15.75781 4.94112,0.7444 10.14751,-0.79026 12.62109,-3.7207 1.13706,-1.34707 2.81606,-4.82872 2.81641,-5.83985 2.5e-4,-0.70965 -0.12949,-0.75018 -2.41602,-0.74218 l -2.41602,0.008 -1,2.06055 c -1.32911,2.7379 -3.11966,3.74321 -6.64062,3.72851 -1.29812,-0.005 -2.93544,-0.20528 -3.63867,-0.44336 -2.73499,-0.92594 -4.96625,-3.94061 -5.41407,-7.3164 l -0.22656,-1.71289 h 11.25782 11.25976 l -0.21289,-2.51563 c -0.41734,-4.93714 -2.79082,-10.04395 -5.64453,-12.14258 -2.483,-1.82603 -4.63697,-2.4094 -8.4082,-2.2832 z m 0.16796,4.50977 c 4.15034,0 7.5739,2.89116 8.23243,6.94921 l 0.1875,1.15039 h -8.37696 c -4.60733,0 -8.37695,-0.12337 -8.37695,-0.27343 0,-1.17468 1.23843,-3.99011 2.24609,-5.10547 1.76514,-1.9538 3.48164,-2.7207 6.08789,-2.7207 z m 91.8327,26.40323 c -5.34307,-0.79685 -9.19201,-4.41646 -10.69341,-10.05624 -0.62926,-2.36375 -0.6022,-7.82087 0.0513,-10.34278 1.16577,-4.49883 3.72326,-7.83482 7.23068,-9.43169 1.76514,-0.80364 2.61162,-0.96609 5.62075,-1.07866 4.22892,-0.1582 6.59649,0.39497 9.17532,2.1438 2.01179,1.36428 3.18916,3.00763 3.92142,5.47344 0.80874,2.72329 0.86132,2.65562 -2.05605,2.64608 l -2.58334,-0.008 -1,-2.05996 c -1.31139,-2.7014 -3.1212,-3.73822 -6.47165,-3.70755 -5.70661,0.0523 -8.7779,3.86187 -8.82868,10.95107 -0.0271,3.7847 0.53954,5.91314 2.17552,8.17154 2.00935,2.77383 6.70295,3.69217 10.12181,1.98042 1.91505,-0.95884 2.69279,-1.92428 3.51875,-4.368 l 0.60298,-1.78396 2.6636,-0.0964 2.6636,-0.0964 -0.4211,1.76304 c -1.76941,7.40792 -7.62645,11.10346 -15.69149,9.90065 z M 467.5,253.72266 c -3.99339,0.13363 -6.17917,0.99279 -8.82617,3.46875 -3.16599,2.96142 -4.67383,6.73482 -4.67383,11.69531 0,8.75264 4.34146,14.66993 11.5625,15.75781 4.94113,0.7444 10.14751,-0.79026 12.62109,-3.7207 1.13706,-1.34707 2.81605,-4.82872 2.81641,-5.83985 2.5e-4,-0.70965 -0.12949,-0.75018 -2.41602,-0.74218 l -2.41796,0.008 -1,2.06055 c -1.32911,2.7379 -3.11773,3.74321 -6.63868,3.72851 -1.29812,-0.005 -2.93545,-0.20528 -3.63867,-0.44336 -2.73499,-0.92594 -4.96625,-3.94061 -5.41406,-7.3164 l -0.22656,-1.71289 h 11.25781 11.25781 l -0.21094,-2.51563 c -0.41734,-4.93714 -2.79277,-10.04395 -5.64648,-12.14258 -2.483,-1.82603 -4.63502,-2.41135 -8.40625,-2.28515 z m 0.16602,4.51172 c 4.15034,0 7.57584,2.89116 8.23437,6.94921 l 0.1875,1.14844 h -8.37695 c -4.60732,0 -8.37696,-0.12142 -8.37696,-0.27148 0,-1.17468 1.23844,-3.99011 2.2461,-5.10547 1.76513,-1.9538 3.47969,-2.7207 6.08594,-2.7207 z m 141.18945,-4.40235 c -4.71355,0 -5.13631,0.0535 -6.87109,0.86719 -3.46159,1.62362 -5.26971,3.96971 -5.84766,7.58398 l -0.22266,1.38282 h 2.71094 c 2.50468,0 2.70898,-0.0511 2.70898,-0.67969 0,-0.37397 0.29376,-1.25814 0.6543,-1.96485 0.95798,-1.8778 2.99129,-2.77629 6.29102,-2.77929 3.50539,-0.004 5.25628,0.73179 6.08593,2.55859 0.83424,1.83691 0.7904,2.62835 -0.21093,3.81836 -0.90447,1.07491 -0.66269,1.00711 -8.37891,2.38086 -8.0639,1.43566 -10.78448,3.81294 -10.76758,9.40625 0.0144,4.78132 2.47899,7.50051 7.49219,8.26758 3.70072,0.56625 7.74206,-0.32152 10.60938,-2.33008 1.05592,-0.73969 1.98876,-1.34375 2.07226,-1.34375 0.0836,0 0.15234,0.3535 0.15234,0.78711 0,1.94871 2.67038,3.48191 5.25391,3.01562 C 622.82124,284.39963 623,284.1895 623,281.96094 v -2.01367 l -0.91602,0.1914 c -1.91906,0.40313 -1.90234,0.49512 -2.08398,-10.93164 l -0.16602,-10.48437 -1.01367,-1.44141 c -0.67711,-0.9628 -1.66337,-1.77208 -2.97656,-2.44336 -1.92759,-0.98538 -2.05987,-1.00586 -6.98828,-1.00586 z M 615,269.0332 l -0.002,2.23438 c -0.004,4.22231 -1.17289,6.45839 -4.11524,7.875 -1.89453,0.91215 -5.07081,1.31764 -6.84179,0.87304 -2.43924,-0.61237 -3.83156,-2.35772 -3.57813,-4.48632 0.35374,-2.97108 2.0859,-4.04568 7.95313,-4.92578 2.42319,-0.36349 4.89729,-0.86505 5.49609,-1.11524 z m 80.42113,15.61149 c -5.64819,-0.7346 -9.75445,-4.67997 -9.75445,-9.37226 v -0.9395 h 2.46434 c 2.57463,0 2.869,0.17261 2.869,1.68233 0,1.01522 1.90706,2.89335 3.59886,3.54428 2.22827,0.85734 6.38293,0.78935 8.4608,-0.13844 3.29852,-1.47283 3.45747,-5.13058 0.29311,-6.74492 -0.71509,-0.36481 -2.6995,-0.97188 -4.4098,-1.34904 -9.98455,-2.20184 -12.62105,-4.12295 -12.60232,-9.18278 0.0127,-3.43761 1.76614,-5.95245 5.2917,-7.58965 1.33482,-0.61985 2.14109,-0.7131 6.20098,-0.71714 4.54195,-0.005 4.72554,0.0233 6.86952,1.03912 1.33772,0.63384 2.54607,1.49374 3.07679,2.18955 1.02423,1.34284 1.88702,3.61765 1.88702,4.97527 v 0.95809 h -2.47415 -2.47415 l -0.37953,-1.1496 c -0.49103,-1.48784 -2.32022,-3.08084 -3.91504,-3.40953 -2.7522,-0.56723 -6.49164,-0.024 -7.82157,1.13624 -0.86009,0.75036 -1.0554,2.22466 -0.44983,3.3957 0.74534,1.44133 2.44615,2.18984 7.98928,3.51604 6.66395,1.59434 9.26771,3.0166 10.37523,5.66727 0.68426,1.63765 0.61045,5.36584 -0.13879,7.01096 -1.314,2.88515 -4.7794,4.88997 -9.51703,5.50582 -2.64859,0.3443 -2.57932,0.34465 -5.43997,-0.0274 z m 54,0 c -5.64819,-0.7346 -9.75445,-4.67997 -9.75445,-9.37226 v -0.9395 h 2.46434 c 2.57464,0 2.869,0.17261 2.869,1.68233 0,1.01522 1.90706,2.89335 3.59886,3.54428 2.22827,0.85734 6.38293,0.78935 8.46081,-0.13844 3.29851,-1.47283 3.45746,-5.13058 0.2931,-6.74492 -0.71509,-0.36481 -2.6995,-0.97188 -4.4098,-1.34904 -9.98455,-2.20184 -12.62104,-4.12295 -12.60232,-9.18278 0.0127,-3.43761 1.76614,-5.95245 5.29171,-7.58965 1.33481,-0.61985 2.14108,-0.7131 6.20097,-0.71714 4.54195,-0.005 4.72554,0.0233 6.86952,1.03912 1.33772,0.63384 2.54607,1.49374 3.07679,2.18955 1.02423,1.34284 1.88702,3.61765 1.88702,4.97527 v 0.95809 h -2.47414 -2.47415 l -0.37954,-1.1496 c -0.49103,-1.48784 -2.32022,-3.08084 -3.91504,-3.40953 -2.7522,-0.56723 -6.49164,-0.024 -7.82157,1.13624 -0.86009,0.75036 -1.0554,2.22466 -0.44983,3.3957 0.74534,1.44133 2.44615,2.18984 7.98928,3.51604 6.66396,1.59434 9.26771,3.0166 10.37523,5.66727 0.68426,1.63765 0.61045,5.36584 -0.13879,7.01096 -1.314,2.88515 -4.7794,4.88997 -9.51703,5.50582 -2.64859,0.3443 -2.57932,0.34465 -5.43997,-0.0274 z M 271.72027,267.58046 c -3.17886,-9.02758 -6.43187,-18.2566 -7.22891,-20.50894 l -1.44917,-4.09514 3.18159,0.0951 3.18159,0.0952 5.75991,17.44554 5.75992,17.44554 5.81437,-17.44554 5.81436,-17.44554 3.08846,-0.0963 c 1.80992,-0.0564 3.04068,0.0323 2.97304,0.2142 -0.0635,0.17076 -3.34042,9.39868 -7.28209,20.50648 l -7.16667,20.196 -3.33333,0.004 -3.33333,0.004 z m 70.61307,-4.08045 v -20.5 h 2.5 2.5 v 7.5116 7.5116 l 1.05333,-1.19968 c 0.57933,-0.65982 1.81683,-1.60254 2.75,-2.09493 1.56818,-0.82746 1.99959,-0.89526 5.69667,-0.89526 3.46382,0 4.17873,0.0964 5.33334,0.71947 1.78213,0.96165 2.97115,2.26709 3.89879,4.28053 0.74839,1.62438 0.77048,1.96479 0.87066,13.41667 l 0.10279,11.75 h -2.49186 -2.49185 l -0.11094,-10.91667 c -0.10469,-10.30236 -0.14946,-10.98225 -0.79562,-12.0822 -1.37717,-2.34433 -3.90297,-3.27927 -7.19602,-2.66363 -2.57218,0.48087 -4.2536,1.76446 -5.45262,4.1625 l -1,2 -0.10185,9.75 -0.10185,9.75 h -2.48148 -2.48149 z m 38.33334,5.66667 v -14.83334 h 2.66666 2.66667 v 14.83334 14.83333 h -2.66667 -2.66666 z m 56,-5.66667 v -20.5 h 2.66666 2.66667 v 20.5 20.5 h -2.66667 -2.66666 z M 526.71484,243 l -0.66015,1.75 c -1.44547,3.83017 -15.12903,38.76491 -15.28125,39.01367 l -0.002,0.002 c -10e-4,0.002 -0.002,0.006 -0.002,0.008 -2e-5,0.002 -6.5e-4,0.008 0,0.01 9.8e-4,0.002 0.004,0.008 0.006,0.01 0.11607,0.12292 1.36747,0.18548 2.94336,0.13672 l 3.10937,-0.0957 2.16993,-5.91992 2.16797,-5.91992 8.61914,0.0859 8.61914,0.0859 0.74023,2 c 0.40783,1.1 1.38341,3.7638 2.16797,5.91796 L 542.74023,284 h 3.16602 c 2.87289,0 3.14536,-0.0547 2.95508,-0.58398 -0.11533,-0.32084 -3.69272,-9.5428 -7.95117,-20.49414 l -7.74414,-19.91211 -3.22461,-0.004 z m 2.98633,5.74805 c 0.11346,-0.35676 6.63281,17.35067 6.63281,18.01562 0,0.13049 -2.98177,0.23633 -6.625,0.23633 h -6.62304 l 3.24023,-8.91602 c 1.78284,-4.90417 3.3019,-9.10612 3.375,-9.33593 z m 28.96551,20.41863 v -14.83334 h 2.33333 2.33334 v 2.04628 2.04628 l 1.41666,-1.50595 c 0.77917,-0.82828 2.09167,-1.8616 2.91667,-2.29628 1.33674,-0.70431 1.93537,-0.79033 5.5,-0.79033 3.46381,0 4.17873,0.0964 5.33333,0.71947 1.78214,0.96165 2.97116,2.26709 3.8988,4.28053 0.74839,1.62438 0.77048,1.96479 0.87066,13.41667 l 0.10279,11.75 h -2.49186 -2.49186 l -0.11093,-10.91667 c -0.10469,-10.30236 -0.14946,-10.98225 -0.79562,-12.0822 -1.37717,-2.34433 -3.90297,-3.27927 -7.19602,-2.66363 -2.57218,0.48087 -4.2536,1.76446 -5.45262,4.1625 l -1,2 -0.10185,9.75 -0.10185,9.75 h -2.48149 -2.48148 z m 75,-5.66667 v -20.5 h 2.66667 2.66667 v 20.5 20.5 h -2.66667 -2.66667 z m 89,5.66667 v -14.83334 h 2.66667 2.66667 v 14.83334 14.83333 h -2.66667 -2.66667 z m -610.25793,6.79583 c -0.96686,-0.16095 -2.46686,-0.6522 -3.33333,-1.09166 -0.86648,-0.43947 -14.700418,-8.76844 -30.742085,-18.50882 -32.062539,-19.46814 -32.067864,-19.47187 -33.705812,-23.58443 -0.744538,-1.86939 -0.778873,-2.36319 -0.89156,-12.82274 -0.07011,-6.50749 0.01931,-11.61692 0.222539,-12.71631 0.760367,-4.1132 3.297319,-7.50176 6.971485,-9.31169 1.884704,-0.92842 2.654687,-1.11086 5.099803,-1.20834 2.436732,-0.0971 3.181849,0.008 4.841741,0.68173 1.078992,0.4381 10.929527,6.09681 21.890078,12.57492 10.960551,6.4781 20.794771,12.12837 21.853831,12.55614 3.32092,1.34138 5.75896,1.85229 9.7179,2.03646 4.62635,0.21521 8.0716,-0.35072 12.08266,-1.98475 1.65935,-0.67599 10.17051,-5.63371 21.45228,-12.49586 10.28588,-6.25641 19.4683,-11.62606 20.40536,-11.93256 1.2054,-0.39427 2.51375,-0.52275 4.47297,-0.43926 2.31275,0.0985 3.1352,0.29825 4.98958,1.21152 3.70422,1.82433 6.13205,5.07331 6.90153,9.23581 0.4761,2.57547 0.47607,20.76038 -3e-5,23.35945 -0.44557,2.43235 -1.94216,5.32455 -3.57601,6.91072 -1.40525,1.36425 -58.94061,35.61441 -61.72834,36.7462 -2.23327,0.90669 -4.5856,1.17284 -6.92459,0.78347 z M 380.8889,249.11112 c -0.12222,-0.12222 -0.22222,-1.54722 -0.22222,-3.16667 v -2.94444 h 2.66666 2.66667 v 3.16666 3.16667 h -2.44445 c -1.34444,0 -2.54444,-0.1 -2.66666,-0.22222 z m 342.00001,0 c -0.12223,-0.12222 -0.22223,-1.54722 -0.22223,-3.16667 v -2.94444 h 2.66667 2.66667 v 3.16666 3.16667 h -2.44445 c -1.34444,0 -2.54444,-0.1 -2.66666,-0.22222 z m -610.7594,-88.49064 c -0.75377,-0.16947 -3.22877,-1.39674 -5.5,-2.72728 -2.27123,-1.33054 -7.197396,-4.21332 -10.947037,-6.40618 -7.585715,-4.43628 -9.661917,-6.16477 -11.195236,-9.32036 -0.877943,-1.80681 -0.971058,-2.32198 -0.964003,-5.33333 0.0068,-2.89332 0.1247,-3.58715 0.893305,-5.25609 1.626348,-3.53144 3.340119,-4.82348 14.389434,-10.84848 10.910477,-5.9493 12.606477,-6.60896 16.142757,-6.27873 2.76243,0.25796 3.77174,0.74583 15.21794,7.35595 10.42005,6.01752 12.10425,7.30444 13.71249,10.47787 0.87807,1.73264 0.95418,2.17525 0.95418,5.54948 0,6.88283 -1.32485,8.34135 -15.10312,16.62701 -6.12254,3.68183 -9.96531,5.78476 -11.11635,6.08334 -1.96721,0.51028 -4.42669,0.53941 -6.48436,0.0768 z" />
  </g>
</svg>
