<?xml version="1.0" encoding="UTF-8" standalone="no"?>
<svg
   viewBox="0 0 569.2757 208.0611"
   width="569.2757"
   height="208.0611"
   preserveAspectRatio="xMidYMid"
   version="1.1"
   id="svg54"
   xmlns="http://www.w3.org/2000/svg"
   xmlns:svg="http://www.w3.org/2000/svg">
  <defs
     id="defs19">
    <filter
       id="__lottie_element_28"
       filterUnits="objectBoundingBox"
       x="0"
       y="0"
       width="1"
       height="1">
      <feComponentTransfer
         in="SourceGraphic"
         id="feComponentTransfer1">
        <feFuncA
           type="table"
           tableValues="1.0 0.0"
           id="feFuncA1" />
      </feComponentTransfer>
    </filter>
    <filter
       id="__lottie_element_35"
       filterUnits="objectBoundingBox"
       x="0"
       y="0"
       width="1"
       height="1">
      <feComponentTransfer
         in="SourceGraphic"
         id="feComponentTransfer4">
        <feFuncA
           type="table"
           tableValues="1.0 0.0"
           id="feFuncA4" />
      </feComponentTransfer>
    </filter>
    <filter
       id="__lottie_element_45"
       filterUnits="objectBoundingBox"
       x="0"
       y="0"
       width="1"
       height="1">
      <feComponentTransfer
         in="SourceGraphic"
         id="feComponentTransfer7">
        <feFuncA
           type="table"
           tableValues="1.0 0.0"
           id="feFuncA7" />
      </feComponentTransfer>
    </filter>
    <filter
       id="__lottie_element_52"
       filterUnits="objectBoundingBox"
       x="0"
       y="0"
       width="1"
       height="1">
      <feComponentTransfer
         in="SourceGraphic"
         id="feComponentTransfer10">
        <feFuncA
           type="table"
           tableValues="1.0 0.0"
           id="feFuncA10" />
      </feComponentTransfer>
    </filter>
    <filter
       id="__lottie_element_59"
       filterUnits="objectBoundingBox"
       x="0"
       y="0"
       width="1"
       height="1">
      <feComponentTransfer
         in="SourceGraphic"
         id="feComponentTransfer13">
        <feFuncA
           type="table"
           tableValues="1.0 0.0"
           id="feFuncA13" />
      </feComponentTransfer>
    </filter>
    <filter
       id="__lottie_element_66"
       filterUnits="objectBoundingBox"
       x="0"
       y="0"
       width="1"
       height="1">
      <feComponentTransfer
         in="SourceGraphic"
         id="feComponentTransfer16">
        <feFuncA
           type="table"
           tableValues="1.0 0.0"
           id="feFuncA16" />
      </feComponentTransfer>
    </filter>
  </defs>
  <path
     fill="#ffcc00"
     fill-opacity="1"
     d="m 339.2333,145.24416 c -15.2852,8.8347 -34.7655,13.1019 -51.8931,13.1019 -17.1108,0 -36.5925,-4.2672 -51.8707,-13.1019 0,0 2.3891,-1.8627 2.3891,-1.8627 15.6884,6.1782 33.3886,9.198 49.4816,9.198 16.107,0 33.8212,-3.0198 49.518,-9.198 z"
     id="path41"
     style="stroke-width:0.7" />
  <path
     fill="#ffcc00"
     fill-opacity="1"
     d="m 358.49238,161.47749 c -21.55214,12.45693 -47.00687,21.0991 -71.15678,21.0991 -24.12623,0 -48.53375,-8.64217 -70.07601,-21.0991 0,0 2.84453,-2.27602 2.84453,-2.27602 22.12064,8.71126 44.54035,15.24422 67.23148,15.24422 22.71087,0 46.19949,-6.53296 68.33198,-15.24422 0,0 3.34988,2.62641 3.34988,2.62641 0,0 0,0 0,0 z"
     id="path43"
     style="stroke-width:0.987" />
  <path
     fill="#ffcc00"
     fill-opacity="1"
     d="m 379.07625,177.43803 c -25.02984,17.83404 -49.70643,30.07311 -91.39681,30.61158 -40.38325,0.52126 -74.8593,-16.80343 -91.4484,-30.96217 0,0 2.76772,-1.59554 2.76772,-1.59554 27.64805,15.05442 58.09028,22.70929 88.50605,22.70929 30.44223,0 66.5416,-9.75448 89.53138,-23.05856 0,0 2.04006,2.2954 2.04006,2.2954 z"
     id="path45"
     style="stroke-width:1.323" />
  <path
     fill="#ec4425"
     fill-opacity="1"
     d="m 235.16008,62.94937 c 15.2852,-8.8347 34.7655,-13.1019 51.8931,-13.1019 17.1108,0 36.5925,4.2672 51.8707,13.1019 0,0 -2.3891,1.8627 -2.3891,1.8627 -15.6884,-6.1782 -33.3886,-9.198 -49.4816,-9.198 -16.107,0 -33.8212,3.0198 -49.518,9.198 0,0 -2.3751,-1.8627 -2.3751,-1.8627 z"
     id="path47"
     style="stroke-width:0.7" />
  <path
     fill="#ec4425"
     fill-opacity="1"
     d="m 215.90102,46.71602 c 21.55214,-12.45693 47.00687,-21.0991 71.15678,-21.0991 24.12623,0 48.53375,8.64217 70.07601,21.0991 0,0 -2.84453,2.27602 -2.84453,2.27602 -22.12064,-8.71126 -44.54035,-15.24422 -67.23148,-15.24422 -22.71087,0 -46.19949,6.53296 -68.33198,15.24422 0,0 -3.34988,-2.62641 -3.34988,-2.62641 0,0 0,0 0,0 z"
     id="path49"
     style="stroke-width:0.987" />
  <path
     fill="#ec4425"
     fill-opacity="1"
     d="m 192.40516,31.59522 c 25.82444,-18.4002 51.28442,-31.02781 94.2983,-31.58337 41.66526,-0.53781 77.23579,17.33687 94.35153,31.9451 0,0 -2.85558,1.64619 -2.85558,1.64619 -28.52577,-15.53233 -59.93442,-23.43023 -91.31577,-23.43023 -31.40865,0 -68.65404,10.06415 -92.37365,23.79059 z"
     id="path51"
     style="stroke-width:1.365" />
  <path
     fill="rgb(26,21,30)"
     fill-opacity="1"
     d="m 529.08867,111.20387 c 0,0 -19.145,0 -19.145,0 0,0 0,15.0213 0,15.0213 0,0 -19.278,0 -19.278,0 0,0 0.063,-44.5032 0.063,-44.5032 0,0 59.325,0 59.325,0 8.246,0.181301 14.434,6.475 14.434,14.4235 0,0 0,0.9079 0,0.9079 0,3.4125 -1.141,6.6577 -3.241,9.0993 -1.722,1.9999 -3.808,3.2683 -5.467,4.039 -1.645,0.7616 -3.871,1.2474 -3.871,1.2474 0,0 17.367,14.7861 17.367,14.7861 0,0 -22.953,0 -22.953,0 0,0 -17.234,-15.0213 -17.234,-15.0213 z m 11.809,-8.939 c 2.87,0 5.208,-2.3387 5.208,-5.2136 0,-2.8749 -2.338,-5.2136 -5.208,-5.2136 0,0 -30.912,0 -30.912,0 0,0 0,10.4272 0,10.4272 z"
     id="path21"
     style="fill:#1a151e;fill-opacity:1;stroke-width:0.7"
     mask="none" />
  <path
     fill="rgb(26,21,30)"
     fill-opacity="1"
     d="m 433.4232,91.72917 c 0,0 0,7.1267 0,7.1267 0,0 40.1345,0 40.1345,0 0,0 0,10.2179 0,10.2179 0,0 -40.1338,0 -40.1338,0 0,0 7e-4,7.1281 7e-4,7.1281 0,0 48.9258,0 48.9258,0 0,0 0,10.024 0,10.024 0,0 -69.2762,0 -69.2762,0 0,0 -0.008,-44.5214 -0.008,-44.5214 0,0 69.2846,0 69.2846,0 0,0 0,10.0247 0,10.0247 0,0 -48.9272,0 -48.9272,0 z"
     id="path24"
     style="fill:#1a151e;fill-opacity:1;stroke-width:0.7"
     mask="none" />
  <path
     fill="rgb(26,21,30)"
     fill-opacity="1"
     d="m 332.79612,126.22517 c 0,0 0,-44.5032 0,-44.5032 0,0 20.3602,0 20.3602,0 0,0 0,19.887 0,19.887 0,0 28.5502,-19.887 28.5502,-19.887 0,0 24.2998,0 24.2998,0 0,0 -30.5613,22.2509 -30.5613,22.2509 0,0 30.5613,22.2523 30.5613,22.2523 0,0 -24.2998,0 -24.2998,0 0,0 -28.5502,-19.8877 -28.5502,-19.8877 0,0 0,19.8877 0,19.8877 z"
     id="path27"
     style="fill:#1a151e;fill-opacity:1;stroke-width:0.7"
     mask="none" />
  <path
     fill="rgb(26,21,30)"
     fill-opacity="1"
     d="m 46.9147,91.898569 c 0,0 0,34.327301 0,34.327301 0,0 -0.2702,0 -0.2702,0 0,0 -19.418,0 -19.418,0 0,0 -0.2989,0 -0.2989,0 0,0 7e-4,-34.327301 7e-4,-34.327301 0,0 -26.89889877,0 -26.89889877,0 0,0 -0.02940000255,-10.194099 -0.02940000255,-10.194099 0,0 73.83459977255,0 73.83459977255,0 0,0 0.0084,10.194099 0.0084,10.194099 0,0 -26.928299,0 -26.928299,0 z"
     id="path30"
     style="fill:#1a151e;fill-opacity:1;stroke-width:0.7"
     mask="none" />
  <path
     fill="rgb(26,21,30)"
     fill-opacity="1"
     d="m 119.08191,111.20387 c 0,0 -19.1464,0 -19.1464,0 0,0 7e-4,15.0213 7e-4,15.0213 0,0 -19.2766,0 -19.2766,0 0,0 0.0637,-44.5032 0.0637,-44.5032 0,0 59.3285,0 59.3285,0 8.2467,0.1813 14.4291,6.475 14.4291,14.4235 0,0 0,0.9079 0,0.9079 7e-4,3.4125 -1.1382,6.6577 -3.2424,9.0993 -1.7227,1.9999 -3.8066,3.2683 -5.4684,4.039 -1.6436,0.7609 -3.8689,1.2474 -3.8689,1.2474 0,0 17.374,14.7861 17.374,14.7861 0,0 -22.9586,0 -22.9586,0 0,0 -17.2347,-15.0213 -17.2347,-15.0213 z m 11.8069,-8.939 c 2.8756,0 5.2136,-2.3387 5.2136,-5.2136 0,-2.8749 -2.338,-5.2136 -5.2136,-5.2136 0,0 -30.9127,0 -30.9127,0 0,0 0,10.4272 0,10.4272 z"
     id="path33"
     style="fill:#1a151e;fill-opacity:1;stroke-width:0.7" />
  <path
     fill="rgb(26,21,30)"
     fill-opacity="1"
     d="m 243.9871,126.22516 c 0,0 -22.323,10e-4 -22.323,10e-4 0,0 -5.4635,-8.673 -5.4635,-8.673 0,0 -32.7649,0.0294 -32.7649,0.0294 0,0 -5.3872,8.6436 -5.3872,8.6436 0,0 -19.3172,-10e-4 -19.3172,-10e-4 0,0 27.5905,-44.4346 27.5905,-44.4346 0,0 28.6888,0 28.6888,0 0,0 28.9765,44.4346 28.9765,44.4346 z M 199.9144,91.120861 c 0,0 -10.1934,16.354099 -10.1934,16.354099 0,0 20.426,0 20.426,0 z"
     id="path35"
     style="fill:#1a151e;fill-opacity:1;stroke-width:0.7"
     mask="none" />
  <path
     fill="rgb(26,21,30)"
     fill-opacity="1"
     d="m 310.93442,94.21976 c -5.3837,-2.313499 -12.3522,-3.5749 -19.6518,-3.5749 -15.624,0 -29.0514,5.8429 -29.0514,13.6402 0,7.7987 13.4274,13.6416 29.0514,13.6416 7.3003,0 14.2674,-1.2614 19.6511,-3.5756 0,0 13.2195,9.5928 13.2195,9.5928 -9.0314,4.403 -20.6724,6.8334 -32.8706,6.8334 -27.3903,0 -49.105,-12.1191 -49.105,-26.4922 0,-14.3724 21.7147,-26.4908 49.105,-26.4908 12.1982,0 23.8399,2.4304 32.8706,6.8334 0,0 -13.2188,9.5921 -13.2188,9.5921 z"
     id="path38"
     style="fill:#1a151e;fill-opacity:1;stroke-width:0.7"
     mask="none" />
</svg>
